<?xml version="1.0" encoding="UTF-8"?>
<svg version="1.1" xmlns="http://www.w3.org/2000/svg" width="1080" height="1080">
<path d="M0 0 C88.13957443 -0.01611333 176.27914912 -0.03164841 281.10621643 -0.04234314 C282.50584668 -0.04248259 283.90547693 -0.04262204 285.30510718 -0.04276149 C314.68156354 -0.04568397 344.05801992 -0.04840071 373.43447633 -0.05087968 C388.19051275 -0.0521251 402.94654918 -0.05341008 417.7025856 -0.05473244 C419.92852426 -0.05493169 422.15446291 -0.05512981 424.38040157 -0.05532788 C458.67022729 -0.05838907 492.96005265 -0.06230014 527.24987793 -0.06866455 C527.98754153 -0.06880145 528.72520513 -0.06893835 529.48522218 -0.0690794 C541.37908597 -0.07129186 553.27294974 -0.07357543 565.16681352 -0.07586844 C599.41093508 -0.08246925 633.65505637 -0.08854713 667.8991785 -0.09113979 C668.60288775 -0.09119333 669.30659699 -0.09124686 670.03163076 -0.09130202 C685.47709589 -0.09246759 700.92256102 -0.09336253 716.36802618 -0.09400098 C722.58208746 -0.09426262 728.79614875 -0.09456324 735.01021004 -0.09487724 C735.69032603 -0.09491067 736.37044203 -0.0949441 737.07116761 -0.09497854 C759.01054233 -0.09607625 780.94991504 -0.10035163 802.88928895 -0.10628221 C825.589994 -0.11240371 848.29069742 -0.11501714 870.99140339 -0.11350138 C884.09306196 -0.1127377 897.1947132 -0.11479608 910.29637046 -0.12079754 C919.03084389 -0.12452711 927.76531248 -0.1246781 936.49978624 -0.12183181 C941.48770392 -0.12031145 946.47560768 -0.12042969 951.46352392 -0.12488318 C955.99063448 -0.12889485 960.5177201 -0.12840423 965.04483023 -0.12413998 C966.68250637 -0.12341884 968.32018428 -0.1244164 969.95785816 -0.12723524 C972.16286238 -0.13079344 974.36777557 -0.12831925 976.57277673 -0.1241985 C978.41249021 -0.12443247 978.41249021 -0.12443247 980.28936961 -0.12467116 C983 0 983 0 984 1 C984.09999457 3.57749764 984.13440801 6.12826493 984.12698364 8.70629883 C984.12854363 9.52315816 984.13010362 10.34001749 984.13171089 11.18163013 C984.13572432 13.94011511 984.13252993 16.69854579 984.12939453 19.45703125 C984.13074842 21.42597486 984.13252828 23.39491821 984.13470459 25.36386108 C984.1392804 30.7273406 984.13748876 36.09080098 984.1343255 41.45428085 C984.13180266 47.05391239 984.13413923 52.65354223 984.13571167 58.25317383 C984.13753359 67.65869442 984.13512648 77.06420716 984.13037109 86.46972656 C984.12492843 97.36071177 984.12669107 108.25167825 984.1321975 119.142663 C984.136728 128.47510724 984.13737949 137.80754583 984.13475883 147.13999081 C984.13319571 152.72188054 984.13300325 158.30376146 984.13629532 163.88565063 C984.13917312 169.13207505 984.13720003 174.37847522 984.13140106 179.624897 C984.13007297 181.55632105 984.1304684 183.48774712 984.13266373 185.41917038 C984.13537332 188.04404202 984.13199646 190.66883465 984.12698364 193.29370117 C984.12921436 194.06829587 984.13144509 194.84289057 984.13374341 195.64095783 C984.11414984 200.88585016 984.11414984 200.88585016 983 202 C980.86198782 202.09882045 978.72063417 202.12523078 976.58033943 202.12534916 C975.89725795 202.12675148 975.21417646 202.1281538 974.51039553 202.12959861 C972.18807098 202.13311858 969.86581127 202.12942145 967.54348755 202.12584114 C965.86789409 202.12688288 964.19230086 202.12836308 962.51670814 202.13024551 C957.86900974 202.13417226 953.22133186 202.13179261 948.57363376 202.12846755 C943.5337026 202.12594746 938.49377477 202.12918412 933.45384407 202.13171089 C924.60642685 202.13533611 915.75901572 202.13520474 906.91159821 202.13266373 C893.75560549 202.12889546 880.59961795 202.13080755 867.44362527 202.13387203 C845.31656261 202.13884337 823.1895018 202.13901265 801.06243896 202.13629532 C800.38792621 202.13621252 799.71341345 202.13612973 799.01846091 202.13604442 C798.34287678 202.13596149 797.66729266 202.13587856 796.97123629 202.13579312 C776.41460076 202.13327302 755.85796622 202.13261711 735.30133057 202.13381577 C733.92640261 202.13389324 732.55147466 202.1339704 731.17654671 202.13404724 C725.65170701 202.13435768 720.1268673 202.13467635 714.6020276 202.135007 C699.15644818 202.13592415 683.71086875 202.13649465 668.26528931 202.13679314 C667.56185088 202.13680678 666.85841246 202.13682043 666.13365771 202.13683449 C643.70876442 202.13724395 621.28387146 202.13611591 598.85897827 202.13394356 C598.13131914 202.13387331 597.40366001 202.13380306 596.6539506 202.13373068 C584.83617686 202.13258564 573.01840312 202.13136622 561.20062939 202.13014051 C514.32580926 202.12528393 467.45099199 202.12550934 420.57617188 202.13037109 C408.76445516 202.13159222 396.95273845 202.13280324 385.14102173 202.13394356 C384.41379647 202.13401401 383.68657121 202.13408445 382.93730882 202.13415704 C360.53644273 202.13631223 338.13557688 202.13722768 315.73471069 202.13679314 C314.68032141 202.13677276 314.68032141 202.13677276 313.60463133 202.13675197 C298.17640243 202.13643954 282.74817356 202.13580598 267.31994469 202.13488263 C261.79995315 202.13455347 256.27996161 202.13424039 250.75997007 202.13393192 C249.38665668 202.13385453 248.01334329 202.1337758 246.6400299 202.13369573 C226.08719921 202.13250062 205.53436964 202.13352151 184.98153909 202.13604442 C183.96976995 202.13616862 183.96976995 202.13616862 182.93756104 202.13629532 C181.92764665 202.13641934 181.92764665 202.13641934 180.89732996 202.13654587 C158.22330352 202.13929993 135.54927934 202.13829613 112.8752532 202.13301457 C99.78914256 202.1300673 86.70303873 202.12990236 73.61692826 202.13366075 C64.89285311 202.13589097 56.16878347 202.13452978 47.44470914 202.13015598 C42.46274893 202.12776067 37.4808023 202.12699777 32.49884248 202.13056196 C27.97714876 202.13376414 23.45548084 202.13246114 18.93378904 202.1273813 C17.29807671 202.12636435 15.6623623 202.12706548 14.02665159 202.12958724 C11.82428902 202.13274477 9.62201868 202.12987045 7.41966057 202.12534916 C6.1946565 202.1252814 4.96965244 202.12521365 3.70752704 202.12514383 C1 202 1 202 0 201 C-0.09778542 198.4075962 -0.12994761 195.84185304 -0.12025452 193.24900818 C-0.12110894 192.42735973 -0.12196337 191.60571128 -0.12284368 190.75916439 C-0.124501 187.9845222 -0.11897302 185.20993943 -0.11352539 182.43530273 C-0.11324355 180.45488486 -0.1134012 178.47446688 -0.1139679 176.49404907 C-0.11425598 171.09964316 -0.10835748 165.70525926 -0.10139394 160.31085849 C-0.09516222 154.68006421 -0.09455675 149.04926948 -0.09336853 143.41847229 C-0.09025467 132.74766975 -0.08204056 122.0768774 -0.07201904 111.40607935 C-0.06085958 99.26118582 -0.05534788 87.1162918 -0.05032361 74.97139442 C-0.03985799 49.98092395 -0.0222575 24.99046255 0 0 Z " fill="#F1D70F" transform="translate(48,388)"/>
<path d="M0 0 C1.22492157 -0.00637985 2.44984314 -0.0127597 3.71188354 -0.01933289 C5.05027222 -0.02086172 6.38866143 -0.0219756 7.72705078 -0.02270508 C9.1008406 -0.02591906 10.47463008 -0.02928324 11.84841919 -0.03279114 C14.72838128 -0.0387784 17.60831338 -0.04063148 20.48828125 -0.04003906 C24.17251853 -0.03993752 27.85656276 -0.05358343 31.54075432 -0.07081127 C34.37868121 -0.08194911 37.2165617 -0.08395772 40.05450821 -0.08342934 C41.41243276 -0.084607 42.77035859 -0.08901682 44.12826157 -0.0967617 C46.03079482 -0.10659606 47.93338477 -0.10241041 49.8359375 -0.09765625 C50.91720917 -0.09908127 51.99848083 -0.10050629 53.11251831 -0.10197449 C56.21419538 0.159318 58.32260706 0.64106217 61.04736328 2.14526367 C63.48495439 5.38810528 63.31170694 8.6394666 63.33789062 12.59448242 C63.35065033 13.90263916 63.36341003 15.2107959 63.3765564 16.55859375 C63.37961346 17.98331555 63.38184154 19.40803934 63.38330078 20.83276367 C63.38972946 22.29720185 63.39645788 23.76163873 63.4034729 25.22607422 C63.41543663 28.29259215 63.41915452 31.35899749 63.41796875 34.42553711 C63.41776527 38.35331969 63.44510043 42.28038107 63.47951317 46.20799255 C63.50175487 49.23119419 63.5058072 52.25422126 63.5047493 55.27749634 C63.50710811 56.72558078 63.51594755 58.17366982 63.53141403 59.62167358 C63.55102078 61.64636919 63.54272715 63.67127679 63.53320312 65.69604492 C63.53605316 66.84758057 63.5389032 67.99911621 63.5418396 69.18554688 C62.93872968 72.79549644 61.9142803 73.93982433 59.04736328 76.14526367 C55.82924548 77.21796961 53.47921687 77.28499264 50.09472656 77.30639648 C48.86980499 77.31600403 47.64488342 77.32561157 46.38284302 77.33551025 C45.04445583 77.34035822 43.70606649 77.34463705 42.36767578 77.34838867 C40.9938863 77.35414284 39.62009683 77.35990054 38.24630737 77.36566162 C35.36634956 77.37616174 32.48641957 77.3820109 29.60644531 77.38549805 C25.92212572 77.39098157 22.23817591 77.41501027 18.55397224 77.44347 C15.71604345 77.46212393 12.87820327 77.46730343 10.04021835 77.46883392 C8.68228 77.47185465 7.32434299 77.47986365 5.966465 77.4930191 C4.06398114 77.51013561 2.16134426 77.50634644 0.25878906 77.50170898 C-0.8224826 77.50535461 -1.90375427 77.50900024 -3.01779175 77.51275635 C-7.27395168 76.97981249 -9.75302373 75.35653831 -12.7388916 72.34164429 C-14.3423058 69.44012254 -14.34704646 67.31282338 -14.37255859 64.00317383 C-14.38847046 62.76153473 -14.40438232 61.51989563 -14.42077637 60.2406311 C-14.42204378 58.88853004 -14.42222039 57.53642757 -14.42138672 56.18432617 C-14.4284913 54.79193821 -14.43619074 53.39955317 -14.44445801 52.00717163 C-14.45789572 49.09022891 -14.45947535 46.17355678 -14.45361328 43.2565918 C-14.44772296 39.52832326 -14.47828156 35.8013596 -14.51873016 32.07334328 C-14.54465182 29.19757153 -14.54748055 26.32211193 -14.5438385 23.44623947 C-14.54552617 22.07236837 -14.55513485 20.69848231 -14.57298279 19.3247261 C-14.71249706 7.25704164 -14.71249706 7.25704164 -11.60302734 3.31860352 C-7.70207694 0.11979544 -4.89274137 0.01727376 0 0 Z " fill="#F9F9F9" transform="translate(542.95263671875,607.854736328125)"/>
<path d="M0 0 C4.3857208 2.55478882 7.37894551 5.16216826 10.1875 9.375 C10.5175 5.745 10.8475 2.115 11.1875 -1.625 C15.1475 -1.625 19.1075 -1.625 23.1875 -1.625 C23.1875 21.805 23.1875 45.235 23.1875 69.375 C19.2275 69.375 15.2675 69.375 11.1875 69.375 C10.8575 65.415 10.5275 61.455 10.1875 57.375 C9.28 58.591875 8.3725 59.80875 7.4375 61.0625 C1.9650053 67.22452903 -4.41663064 69.76497999 -12.5 70.88671875 C-22.59664738 71.3522404 -30.0090744 68.88527098 -37.96875 62.69921875 C-42.14350008 58.85172662 -44.74805028 54.63170067 -46.8125 49.375 C-47.1115625 48.62476563 -47.410625 47.87453125 -47.71875 47.1015625 C-51.57544222 36.06713753 -50.79953429 24.90974108 -45.8125 14.375 C-36.34043194 -1.57537367 -16.99319313 -8.07388032 0 0 Z " fill="#050500" transform="translate(743.8125,463.625)"/>
<path d="M0 0 C3.03212969 2.26095219 5.52185309 4.67655827 8.02734375 7.51171875 C8.35734375 3.88171875 8.68734375 0.25171875 9.02734375 -3.48828125 C12.98734375 -3.48828125 16.94734375 -3.48828125 21.02734375 -3.48828125 C21.02734375 20.27171875 21.02734375 44.03171875 21.02734375 68.51171875 C17.06734375 68.51171875 13.10734375 68.51171875 9.02734375 68.51171875 C8.69734375 64.88171875 8.36734375 61.25171875 8.02734375 57.51171875 C7.40859375 58.39859375 6.78984375 59.28546875 6.15234375 60.19921875 C2.02064117 65.19514565 -4.62981623 68.35847511 -10.97265625 69.51171875 C-21.9870949 70.35791618 -30.58230208 69.34392969 -39.28515625 62.26171875 C-46.96485265 55.03194396 -50.57174307 46.45060077 -51.17578125 35.99609375 C-51.34243875 22.71904642 -49.3193341 14.23038029 -40.12109375 4.56640625 C-29.86113919 -5.20303255 -12.35308901 -7.36962063 0 0 Z " fill="#050400" transform="translate(250.97265625,464.48828125)"/>
<path d="M0 0 C88.13957443 -0.01611333 176.27914912 -0.03164841 281.10621643 -0.04234314 C282.50584668 -0.04248259 283.90547693 -0.04262204 285.30510718 -0.04276149 C314.68156354 -0.04568397 344.05801992 -0.04840071 373.43447633 -0.05087968 C388.19051275 -0.0521251 402.94654918 -0.05341008 417.7025856 -0.05473244 C419.92852426 -0.05493169 422.15446291 -0.05512981 424.38040157 -0.05532788 C458.67022729 -0.05838907 492.96005265 -0.06230014 527.24987793 -0.06866455 C527.98754153 -0.06880145 528.72520513 -0.06893835 529.48522218 -0.0690794 C541.37908597 -0.07129186 553.27294974 -0.07357543 565.16681352 -0.07586844 C599.41093508 -0.08246925 633.65505637 -0.08854713 667.8991785 -0.09113979 C668.60288775 -0.09119333 669.30659699 -0.09124686 670.03163076 -0.09130202 C685.47709589 -0.09246759 700.92256102 -0.09336253 716.36802618 -0.09400098 C722.58208746 -0.09426262 728.79614875 -0.09456324 735.01021004 -0.09487724 C735.69032603 -0.09491067 736.37044203 -0.0949441 737.07116761 -0.09497854 C759.01054233 -0.09607625 780.94991504 -0.10035163 802.88928895 -0.10628221 C825.589994 -0.11240371 848.29069742 -0.11501714 870.99140339 -0.11350138 C884.09306196 -0.1127377 897.1947132 -0.11479608 910.29637046 -0.12079754 C919.03084389 -0.12452711 927.76531248 -0.1246781 936.49978624 -0.12183181 C941.48770392 -0.12031145 946.47560768 -0.12042969 951.46352392 -0.12488318 C955.99063448 -0.12889485 960.5177201 -0.12840423 965.04483023 -0.12413998 C966.68250637 -0.12341884 968.32018428 -0.1244164 969.95785816 -0.12723524 C972.16286238 -0.13079344 974.36777557 -0.12831925 976.57277673 -0.1241985 C978.41249021 -0.12443247 978.41249021 -0.12443247 980.28936961 -0.12467116 C983 0 983 0 984 1 C984.09999457 3.57749764 984.13440801 6.12826493 984.12698364 8.70629883 C984.12854363 9.52315816 984.13010362 10.34001749 984.13171089 11.18163013 C984.13572432 13.94011511 984.13252993 16.69854579 984.12939453 19.45703125 C984.13074842 21.42597486 984.13252828 23.39491821 984.13470459 25.36386108 C984.1392804 30.7273406 984.13748876 36.09080098 984.1343255 41.45428085 C984.13180266 47.05391239 984.13413923 52.65354223 984.13571167 58.25317383 C984.13753359 67.65869442 984.13512648 77.06420716 984.13037109 86.46972656 C984.12492843 97.36071177 984.12669107 108.25167825 984.1321975 119.142663 C984.136728 128.47510724 984.13737949 137.80754583 984.13475883 147.13999081 C984.13319571 152.72188054 984.13300325 158.30376146 984.13629532 163.88565063 C984.13917312 169.13207505 984.13720003 174.37847522 984.13140106 179.624897 C984.13007297 181.55632105 984.1304684 183.48774712 984.13266373 185.41917038 C984.13537332 188.04404202 984.13199646 190.66883465 984.12698364 193.29370117 C984.12921436 194.06829587 984.13144509 194.84289057 984.13374341 195.64095783 C984.11414984 200.88585016 984.11414984 200.88585016 983 202 C980.86198782 202.09882045 978.72063417 202.12523078 976.58033943 202.12534916 C975.89725795 202.12675148 975.21417646 202.1281538 974.51039553 202.12959861 C972.18807098 202.13311858 969.86581127 202.12942145 967.54348755 202.12584114 C965.86789409 202.12688288 964.19230086 202.12836308 962.51670814 202.13024551 C957.86900974 202.13417226 953.22133186 202.13179261 948.57363376 202.12846755 C943.5337026 202.12594746 938.49377477 202.12918412 933.45384407 202.13171089 C924.60642685 202.13533611 915.75901572 202.13520474 906.91159821 202.13266373 C893.75560549 202.12889546 880.59961795 202.13080755 867.44362527 202.13387203 C845.31656261 202.13884337 823.1895018 202.13901265 801.06243896 202.13629532 C800.38792621 202.13621252 799.71341345 202.13612973 799.01846091 202.13604442 C798.34287678 202.13596149 797.66729266 202.13587856 796.97123629 202.13579312 C776.41460076 202.13327302 755.85796622 202.13261711 735.30133057 202.13381577 C733.92640261 202.13389324 732.55147466 202.1339704 731.17654671 202.13404724 C725.65170701 202.13435768 720.1268673 202.13467635 714.6020276 202.135007 C699.15644818 202.13592415 683.71086875 202.13649465 668.26528931 202.13679314 C667.56185088 202.13680678 666.85841246 202.13682043 666.13365771 202.13683449 C643.70876442 202.13724395 621.28387146 202.13611591 598.85897827 202.13394356 C598.13131914 202.13387331 597.40366001 202.13380306 596.6539506 202.13373068 C584.83617686 202.13258564 573.01840312 202.13136622 561.20062939 202.13014051 C514.32580926 202.12528393 467.45099199 202.12550934 420.57617188 202.13037109 C408.76445516 202.13159222 396.95273845 202.13280324 385.14102173 202.13394356 C384.41379647 202.13401401 383.68657121 202.13408445 382.93730882 202.13415704 C360.53644273 202.13631223 338.13557688 202.13722768 315.73471069 202.13679314 C314.68032141 202.13677276 314.68032141 202.13677276 313.60463133 202.13675197 C298.17640243 202.13643954 282.74817356 202.13580598 267.31994469 202.13488263 C261.79995315 202.13455347 256.27996161 202.13424039 250.75997007 202.13393192 C249.38665668 202.13385453 248.01334329 202.1337758 246.6400299 202.13369573 C226.08719921 202.13250062 205.53436964 202.13352151 184.98153909 202.13604442 C183.96976995 202.13616862 183.96976995 202.13616862 182.93756104 202.13629532 C181.92764665 202.13641934 181.92764665 202.13641934 180.89732996 202.13654587 C158.22330352 202.13929993 135.54927934 202.13829613 112.8752532 202.13301457 C99.78914256 202.1300673 86.70303873 202.12990236 73.61692826 202.13366075 C64.89285311 202.13589097 56.16878347 202.13452978 47.44470914 202.13015598 C42.46274893 202.12776067 37.4808023 202.12699777 32.49884248 202.13056196 C27.97714876 202.13376414 23.45548084 202.13246114 18.93378904 202.1273813 C17.29807671 202.12636435 15.6623623 202.12706548 14.02665159 202.12958724 C11.82428902 202.13274477 9.62201868 202.12987045 7.41966057 202.12534916 C6.1946565 202.1252814 4.96965244 202.12521365 3.70752704 202.12514383 C1 202 1 202 0 201 C-0.09778542 198.4075962 -0.12994761 195.84185304 -0.12025452 193.24900818 C-0.12110894 192.42735973 -0.12196337 191.60571128 -0.12284368 190.75916439 C-0.124501 187.9845222 -0.11897302 185.20993943 -0.11352539 182.43530273 C-0.11324355 180.45488486 -0.1134012 178.47446688 -0.1139679 176.49404907 C-0.11425598 171.09964316 -0.10835748 165.70525926 -0.10139394 160.31085849 C-0.09516222 154.68006421 -0.09455675 149.04926948 -0.09336853 143.41847229 C-0.09025467 132.74766975 -0.08204056 122.0768774 -0.07201904 111.40607935 C-0.06085958 99.26118582 -0.05534788 87.1162918 -0.05032361 74.97139442 C-0.03985799 49.98092395 -0.0222575 24.99046255 0 0 Z M2 1 C2 66.67 2 132.34 2 200 C325.4 200 648.8 200 982 200 C982 134.33 982 68.66 982 1 C658.6 1 335.2 1 2 1 Z " fill="#504705" transform="translate(48,388)"/>
<path d="M0 0 C33.9541309 0 33.9541309 0 43.31640625 9.0703125 C50.39029093 17.17819888 52.36150765 24.61624337 52.375 35.1875 C52.39949219 36.17814453 52.42398438 37.16878906 52.44921875 38.18945312 C52.48509116 47.30702419 50.24004049 55.59307357 43.90234375 62.3984375 C30.64753386 73.55751769 17.59752312 71 0 71 C0 47.57 0 24.14 0 0 Z " fill="#F1D70F" transform="translate(124,452)"/>
<path d="M0 0 C4.95 0 9.9 0 15 0 C21.23155765 16.4897457 27.29899356 33.03210503 33.25 49.625 C34.03370561 51.80604297 34.81755948 53.98703267 35.6015625 56.16796875 C37.08493322 60.2950952 38.56593619 64.42305808 40.04492188 68.55175781 C41.24196494 71.89238018 42.44503953 75.23062916 43.65820312 78.56542969 C43.89746521 79.22602386 44.13672729 79.88661804 44.38323975 80.56723022 C44.99137087 82.24528172 45.6024704 83.92225668 46.21386719 85.59912109 C47 88 47 88 47 90 C43.04 90 39.08 90 35 90 C32.0600324 83.19165397 29.81343508 77.25374032 28 70 C14.47 70 0.94 70 -13 70 C-13.66 72.97 -14.32 75.94 -15 79 C-16.2128831 82.72275434 -17.60909415 86.33728125 -19 90 C-23.29 90 -27.58 90 -32 90 C-29.76025781 82.24999582 -27.15849397 74.68675063 -24.39453125 67.109375 C-23.95163254 65.88833069 -23.50873383 64.66728638 -23.05241394 63.40924072 C-21.87922734 60.17496942 -20.70273896 56.94190917 -19.5255127 53.70910645 C-18.35549112 50.49430141 -17.18862182 47.27835298 -16.02148438 44.0625 C-13.77569554 37.8762047 -11.52645642 31.691169 -9.27593994 25.5065918 C-7.65015386 21.03853813 -6.02545948 16.5700879 -4.40080261 12.10162354 C-2.9341028 8.06766377 -1.46706067 4.03382855 0 0 Z " fill="#060500" transform="translate(448,443)"/>
<path d="M0 0 C7.50701282 5.64480809 12.02343246 11.84617314 14.51953125 20.89453125 C14.51953125 26.17453125 14.51953125 31.45453125 14.51953125 36.89453125 C-4.29046875 36.89453125 -23.10046875 36.89453125 -42.48046875 36.89453125 C-40.40564943 45.19380853 -38.80605901 51.12281649 -31.48046875 55.89453125 C-25.08737744 59.04304867 -17.80223523 59.18012001 -11.01171875 57.16015625 C-6.75551345 55.22262996 -4.10059782 52.82472486 -1.48046875 48.89453125 C-0.82046875 47.90453125 -0.16046875 46.91453125 0.51953125 45.89453125 C3.33984375 45.6015625 3.33984375 45.6015625 6.64453125 45.70703125 C8.28808594 45.74763672 8.28808594 45.74763672 9.96484375 45.7890625 C11.22941406 45.84126953 11.22941406 45.84126953 12.51953125 45.89453125 C12.17827924 52.71957136 8.47117057 57.08194132 3.6953125 61.6328125 C-5.70816949 69.31963449 -16.79606555 69.96993134 -28.48046875 68.89453125 C-31.878026 68.03910076 -34.543269 66.78399241 -37.48046875 64.89453125 C-38.17527344 64.47042969 -38.87007812 64.04632812 -39.5859375 63.609375 C-46.59237317 58.89021852 -51.60666011 51.85926041 -54.01171875 43.7421875 C-55.58248372 34.19979031 -56.10142568 22.62690994 -51.48046875 13.89453125 C-51.08988281 13.14042969 -50.69929687 12.38632812 -50.296875 11.609375 C-46.08533891 4.46288741 -40.05759472 -0.4676297 -32.23828125 -3.265625 C-21.48344222 -5.66925327 -9.63948797 -5.75672918 0 0 Z " fill="#060500" transform="translate(668.48046875,465.10546875)"/>
<path d="M0 0 C7.50701282 5.64480809 12.02343246 11.84617314 14.51953125 20.89453125 C14.51953125 26.17453125 14.51953125 31.45453125 14.51953125 36.89453125 C-4.29046875 36.89453125 -23.10046875 36.89453125 -42.48046875 36.89453125 C-40.40564943 45.19380853 -38.80605901 51.12281649 -31.48046875 55.89453125 C-25.08737744 59.04304867 -17.80223523 59.18012001 -11.01171875 57.16015625 C-6.75551345 55.22262996 -4.10059782 52.82472486 -1.48046875 48.89453125 C-0.82046875 47.90453125 -0.16046875 46.91453125 0.51953125 45.89453125 C3.33984375 45.6015625 3.33984375 45.6015625 6.64453125 45.70703125 C8.28808594 45.74763672 8.28808594 45.74763672 9.96484375 45.7890625 C11.22941406 45.84126953 11.22941406 45.84126953 12.51953125 45.89453125 C12.17827924 52.71957136 8.47117057 57.08194132 3.6953125 61.6328125 C-5.70816949 69.31963449 -16.79606555 69.96993134 -28.48046875 68.89453125 C-31.878026 68.03910076 -34.543269 66.78399241 -37.48046875 64.89453125 C-38.17527344 64.47042969 -38.87007813 64.04632812 -39.5859375 63.609375 C-46.59237317 58.89021852 -51.60666011 51.85926041 -54.01171875 43.7421875 C-55.58248372 34.19979031 -56.10142568 22.62690994 -51.48046875 13.89453125 C-51.08988281 13.14042969 -50.69929688 12.38632812 -50.296875 11.609375 C-46.08533891 4.46288741 -40.05759472 -0.4676297 -32.23828125 -3.265625 C-21.48344222 -5.66925327 -9.63948797 -5.75672918 0 0 Z " fill="#060500" transform="translate(391.48046875,465.10546875)"/>
<path d="M0 0 C51.40525328 0 51.40525328 0 65.9609375 13.70703125 C74.82676212 23.67683786 77.65251032 36.1231458 77.34765625 49.15234375 C76.11487906 62.79600141 70.97654357 73.38011002 60.5625 82.2109375 C42.64029584 94.72369589 21.07085019 91 0 91 C0 60.97 0 30.94 0 0 Z M12 10 C12 33.43 12 56.86 12 81 C35.50503264 82.04618066 35.50503264 82.04618066 55 73 C63.66474842 64.20809594 64.58927223 54.42694906 64.55297852 42.6640625 C64.34758202 34.45345254 63.07347477 28.65963872 58 22 C57.47019531 21.29875 56.94039062 20.5975 56.39453125 19.875 C51.22185964 13.97741716 44.42271516 11.85567879 37 10 C28.75 10 20.5 10 12 10 Z " fill="#070600" transform="translate(112,442)"/>
<path d="M0 0 C1.22492157 -0.00637985 2.44984314 -0.0127597 3.71188354 -0.01933289 C5.05027222 -0.02086172 6.38866143 -0.0219756 7.72705078 -0.02270508 C9.1008406 -0.02591906 10.47463008 -0.02928324 11.84841919 -0.03279114 C14.72838128 -0.0387784 17.60831338 -0.04063148 20.48828125 -0.04003906 C24.17251853 -0.03993752 27.85656276 -0.05358343 31.54075432 -0.07081127 C34.37868121 -0.08194911 37.2165617 -0.08395772 40.05450821 -0.08342934 C41.41243276 -0.084607 42.77035859 -0.08901682 44.12826157 -0.0967617 C46.03079482 -0.10659606 47.93338477 -0.10241041 49.8359375 -0.09765625 C50.91720917 -0.09908127 51.99848083 -0.10050629 53.11251831 -0.10197449 C56.21419538 0.159318 58.32260706 0.64106217 61.04736328 2.14526367 C63.48495439 5.38810528 63.31170694 8.6394666 63.33789062 12.59448242 C63.35065033 13.90263916 63.36341003 15.2107959 63.3765564 16.55859375 C63.37961346 17.98331555 63.38184154 19.40803934 63.38330078 20.83276367 C63.38972946 22.29720185 63.39645788 23.76163873 63.4034729 25.22607422 C63.41543663 28.29259215 63.41915452 31.35899749 63.41796875 34.42553711 C63.41776527 38.35331969 63.44510043 42.28038107 63.47951317 46.20799255 C63.50175487 49.23119419 63.5058072 52.25422126 63.5047493 55.27749634 C63.50710811 56.72558078 63.51594755 58.17366982 63.53141403 59.62167358 C63.55102078 61.64636919 63.54272715 63.67127679 63.53320312 65.69604492 C63.53605316 66.84758057 63.5389032 67.99911621 63.5418396 69.18554688 C62.93872968 72.79549644 61.9142803 73.93982433 59.04736328 76.14526367 C55.82924548 77.21796961 53.47921687 77.28499264 50.09472656 77.30639648 C48.86980499 77.31600403 47.64488342 77.32561157 46.38284302 77.33551025 C45.04445583 77.34035822 43.70606649 77.34463705 42.36767578 77.34838867 C40.9938863 77.35414284 39.62009683 77.35990054 38.24630737 77.36566162 C35.36634956 77.37616174 32.48641957 77.3820109 29.60644531 77.38549805 C25.92212572 77.39098157 22.23817591 77.41501027 18.55397224 77.44347 C15.71604345 77.46212393 12.87820327 77.46730343 10.04021835 77.46883392 C8.68228 77.47185465 7.32434299 77.47986365 5.966465 77.4930191 C4.06398114 77.51013561 2.16134426 77.50634644 0.25878906 77.50170898 C-0.8224826 77.50535461 -1.90375427 77.50900024 -3.01779175 77.51275635 C-7.27395168 76.97981249 -9.75302373 75.35653831 -12.7388916 72.34164429 C-14.3423058 69.44012254 -14.34704646 67.31282338 -14.37255859 64.00317383 C-14.38847046 62.76153473 -14.40438232 61.51989563 -14.42077637 60.2406311 C-14.42204378 58.88853004 -14.42222039 57.53642757 -14.42138672 56.18432617 C-14.4284913 54.79193821 -14.43619074 53.39955317 -14.44445801 52.00717163 C-14.45789572 49.09022891 -14.45947535 46.17355678 -14.45361328 43.2565918 C-14.44772296 39.52832326 -14.47828156 35.8013596 -14.51873016 32.07334328 C-14.54465182 29.19757153 -14.54748055 26.32211193 -14.5438385 23.44623947 C-14.54552617 22.07236837 -14.55513485 20.69848231 -14.57298279 19.3247261 C-14.71249706 7.25704164 -14.71249706 7.25704164 -11.60302734 3.31860352 C-7.70207694 0.11979544 -4.89274137 0.01727376 0 0 Z M8.04736328 12.14526367 C7.44794922 12.55776367 6.84853516 12.97026367 6.23095703 13.39526367 C0.37331297 17.84859134 -4.68291163 24.78631933 -5.95263672 32.14526367 C-7.08607005 43.40786071 -5.15748541 50.67466561 1.91064453 59.46166992 C7.32424374 65.35262056 12.58707275 68.67472753 20.60205078 69.52026367 C31.67699645 69.87680116 40.09996841 67.87465928 48.28955078 60.21557617 C54.83411541 52.50753339 56.60590759 43.87088628 56.38720703 34.01635742 C55.68169777 25.9800393 51.78675827 20.02136296 45.94580078 14.61401367 C35.92904295 6.86442325 18.60432695 4.19649103 8.04736328 12.14526367 Z " fill="#F2D712" transform="translate(542.95263671875,607.854736328125)"/>
<path d="M0 0 C5.97551427 3.659057 10.27979282 7.49515673 13 14 C13.05587126 15.99921945 13.06448259 18.00103977 13 20 C8.90503052 20.47023573 5.07539854 20.70783238 1 20 C-0.79709293 18.1500514 -1.63395362 16.36102999 -2.75 14.046875 C-5.08573054 10.22211625 -8.80026744 9.05657829 -13 8 C-18.98700733 7.21555778 -23.90327619 7.48083356 -29 11 C-31.78053722 13.34150503 -32.85049705 14.98704121 -33.3828125 18.59375 C-33.64524344 24.44669618 -33.64524344 24.44669618 -31.27734375 29.6953125 C-28.88679037 32.11456892 -27.20886435 33.14602362 -24.0625 34.375 C-23.01964844 34.78492188 -21.97679687 35.19484375 -20.90234375 35.6171875 C-17.87623612 36.71921329 -14.82102122 37.7137041 -11.75390625 38.6953125 C-10.82763428 38.9938916 -9.9013623 39.2924707 -8.94702148 39.60009766 C-7.09818985 40.18966366 -5.24488081 40.7654091 -3.38696289 41.32568359 C3.56531562 43.52195544 7.62286396 46.18497048 12.375 51.8125 C15.5081499 57.8531068 14.85457579 65.45263473 14 72 C11.16326102 79.49561687 4.96397637 84.42029575 -1.984375 88.03125 C-11.00375784 91.69325506 -21.60702035 91.34345404 -30.5625 87.8125 C-37.60786088 84.43640089 -43.08087671 80.48885034 -46 73 C-46.56370426 70.29990396 -46.80609205 67.76318828 -47 65 C-42.71 65 -38.42 65 -34 65 C-33.1646875 67.10375 -33.1646875 67.10375 -32.3125 69.25 C-30.52239635 73.28725505 -28.84151152 75.63599291 -25 78 C-18.75705981 80.08098006 -12.08933734 79.78816502 -6 77.3125 C-2.34305378 75.41533649 -0.29695838 74.06380291 1 70 C1.5889952 64.99354082 1.80742484 60.64995511 -0.4375 56.0625 C-7.48058713 50.39367378 -16.66375163 48.56247437 -25.27148438 46.46484375 C-33.54307424 44.27441542 -40.2093879 40.28173039 -45 33 C-47.18065575 26.50284075 -47.35176781 17.66318757 -44.9765625 11.2265625 C-35.76444632 -3.68586867 -15.33828867 -7.4327666 0 0 Z " fill="#050500" transform="translate(586,444)"/>
<path d="M0 0 C1.20527344 -0.01417969 2.41054688 -0.02835938 3.65234375 -0.04296875 C6.95302612 0.18010142 9.09545277 0.8007848 12.0625 2.1875 C12.8875 2.435 13.7125 2.6825 14.5625 2.9375 C18.0889827 4.70074135 19.65720977 7.06712349 22.0625 10.1875 C22.7225 10.8475 23.3825 11.5075 24.0625 12.1875 C22.79907512 13.67299956 21.5264897 15.15071189 20.25 16.625 C19.18845703 17.86056641 19.18845703 17.86056641 18.10546875 19.12109375 C16.0625 21.1875 16.0625 21.1875 13.0625 22.1875 C12.65 21.73375 12.2375 21.28 11.8125 20.8125 C8.16972501 17.42992322 4.15741401 16.47306284 -0.69140625 16.03515625 C-3.70102737 16.23928707 -5.54652399 17.47814536 -7.65234375 19.6015625 C-10.69941472 23.36177773 -12.66091573 26.69394494 -13.5625 31.5625 C-12.51069994 37.66294033 -9.18262128 42.33527494 -4.4375 46.25 C-1.30477967 47.42477012 0.74056423 47.67194897 4.0625 47.1875 C7.40011045 45.03659549 8.79720933 43.98337201 10.0625 40.1875 C6.4325 40.1875 2.8025 40.1875 -0.9375 40.1875 C-2.17637548 37.70974905 -2.10491669 35.95096293 -2.125 33.1875 C-2.14626953 31.8571875 -2.14626953 31.8571875 -2.16796875 30.5 C-1.9375 28.1875 -1.9375 28.1875 0.0625 26.1875 C2.64453125 25.92871094 2.64453125 25.92871094 5.875 25.921875 C7.03257812 25.91929687 8.19015625 25.91671875 9.3828125 25.9140625 C10.59710937 25.92179688 11.81140625 25.92953125 13.0625 25.9375 C14.27679687 25.92976562 15.49109375 25.92203125 16.7421875 25.9140625 C18.47855469 25.91792969 18.47855469 25.91792969 20.25 25.921875 C21.31605469 25.92413086 22.38210938 25.92638672 23.48046875 25.92871094 C26.0625 26.1875 26.0625 26.1875 28.0625 28.1875 C28.93528398 36.21711258 29.47279272 44.12612411 24.3515625 50.8046875 C23.27915417 51.95508916 22.17458894 53.07541106 21.0625 54.1875 C20.52625 54.80625 19.99 55.425 19.4375 56.0625 C13.41908265 61.44739973 7.60615235 62.793525 -0.3125 62.5 C-1.11816406 62.49033203 -1.92382812 62.48066406 -2.75390625 62.47070312 C-8.59617269 62.35816365 -8.59617269 62.35816365 -10.9375 61.1875 C-10.9375 60.5275 -10.9375 59.8675 -10.9375 59.1875 C-12.4225 59.6825 -12.4225 59.6825 -13.9375 60.1875 C-16.625 58.875 -16.625 58.875 -18.9375 57.1875 C-18.9375 56.5275 -18.9375 55.8675 -18.9375 55.1875 C-19.515 54.98125 -20.0925 54.775 -20.6875 54.5625 C-24.73040538 52.0918356 -26.49067924 48.42866877 -28.0625 44.0625 C-30.65478972 32.58235981 -30.65478972 32.58235981 -30.9375 28.1875 C-29.9475 26.7025 -29.9475 26.7025 -28.9375 25.1875 C-28.97875 24.445 -29.02 23.7025 -29.0625 22.9375 C-28.84810037 18.2207082 -26.25316904 14.50316904 -22.9375 11.1875 C-22.215625 10.23875 -21.49375 9.29 -20.75 8.3125 C-15.21140753 1.61047539 -8.37254592 0.04467741 0 0 Z M-2.9375 14.1875 C-2.9375 14.5175 -2.9375 14.8475 -2.9375 15.1875 C-0.6275 15.1875 1.6825 15.1875 4.0625 15.1875 C4.0625 14.8575 4.0625 14.5275 4.0625 14.1875 C1.7525 14.1875 -0.5575 14.1875 -2.9375 14.1875 Z M11.0625 40.1875 C12.0625 42.1875 12.0625 42.1875 12.0625 42.1875 Z M26.0625 42.1875 C27.0625 44.1875 27.0625 44.1875 27.0625 44.1875 Z " fill="#95979A" transform="translate(721.9375,614.8125)"/>
<path d="M0 0 C3.63 0 7.26 0 11 0 C11 11.22 11 22.44 11 34 C11.66 34 12.32 34 13 34 C13.25007812 33.39542969 13.50015625 32.79085937 13.7578125 32.16796875 C15.18785771 29.67213513 16.42519693 28.77775957 18.875 27.3125 C19.55304687 26.89613281 20.23109375 26.47976563 20.9296875 26.05078125 C27.9067513 22.50959227 38.38194317 22.78901499 45.875 24.75390625 C53.25082087 27.93099125 58.3614554 32.51545533 61.81347656 39.79101562 C65.07435554 49.3917877 63.58848105 60.77412453 63.375 70.75 C63.34486308 73.20048807 63.31749388 75.65101184 63.29296875 78.1015625 C63.22727066 84.06859827 63.12394941 90.03390159 63 96 C59.37 96 55.74 96 52 96 C51.99589111 94.62859863 51.99178223 93.25719727 51.98754883 91.84423828 C51.96565065 86.71870184 51.91125011 81.59392143 51.84741211 76.46875 C51.82432508 74.25756112 51.80985839 72.04626371 51.80444336 69.83496094 C51.79508587 66.64189754 51.7539456 63.45051925 51.70703125 60.2578125 C51.7109639 59.28135773 51.71489655 58.30490295 51.71894836 57.29885864 C51.57237663 50.28317869 49.90658971 44.87500739 46 39 C40.78397048 34.43597417 35.89696434 34.44173636 29.09375 34.68359375 C23.40030909 35.26587748 20.32771446 36.67228554 16.1875 40.8125 C11.80003468 47.20566375 11.67488505 53.13892258 11.5859375 60.6484375 C11.56657135 61.66096588 11.5472052 62.67349426 11.5272522 63.71670532 C11.46769277 66.93605242 11.42116552 70.15543574 11.375 73.375 C11.33679849 75.56381728 11.2977455 77.75261988 11.2578125 79.94140625 C11.16201058 85.29415093 11.07789225 90.64696596 11 96 C7.37 96 3.74 96 0 96 C0 64.32 0 32.64 0 0 Z " fill="#010100" transform="translate(915,437)"/>
<path d="M0 0 C1.08152344 -0.020625 2.16304687 -0.04125 3.27734375 -0.0625 C13.33874635 -0.11163994 19.85803582 2.49386215 27.375 9.25 C31.85129031 14.01695851 33.85410306 17.60856408 34.375 24.25 C35.035 25.24 35.695 26.23 36.375 27.25 C36.08895102 28.92542976 35.75718767 30.59385343 35.375 32.25 C35.705 32.91 36.035 33.57 36.375 34.25 C35.21364039 40.83893822 33.01322952 45.50133645 28.375 50.25 C27.611875 51.095625 26.84875 51.94125 26.0625 52.8125 C17.42379217 60.6476071 9.91351624 61.42136222 -1.4375 61.375 C-2.40365234 61.37886719 -3.36980469 61.38273438 -4.36523438 61.38671875 C-5.28240234 61.38542969 -6.19957031 61.38414062 -7.14453125 61.3828125 C-7.98089111 61.38168457 -8.81725098 61.38055664 -9.67895508 61.37939453 C-11.625 61.25 -11.625 61.25 -12.625 60.25 C-12.72405152 58.41427369 -12.75299207 56.57472425 -12.75439453 54.73632812 C-12.75754669 53.55840698 -12.76069885 52.38048584 -12.76394653 51.16687012 C-12.7619223 49.88461548 -12.75989807 48.60236084 -12.7578125 47.28125 C-12.75876923 45.97546997 -12.75972595 44.66968994 -12.76071167 43.32434082 C-12.76218833 40.55687278 -12.76003511 37.78943696 -12.75537109 35.02197266 C-12.74967381 31.46737351 -12.75295298 27.91284986 -12.75894356 24.35825348 C-12.76341747 20.97841286 -12.76028886 17.59859277 -12.7578125 14.21875 C-12.75983673 12.93649536 -12.76186096 11.65424072 -12.76394653 10.33312988 C-12.76079437 9.15520874 -12.75764221 7.9772876 -12.75439453 6.76367188 C-12.75359894 5.72078003 -12.75280334 4.67788818 -12.75198364 3.60339355 C-12.44224296 -2.13704447 -4.40078673 0.02054043 0 0 Z M3.375 16.25 C3.375 25.82 3.375 35.39 3.375 45.25 C5.025 45.58 6.675 45.91 8.375 46.25 C8.375 45.59 8.375 44.93 8.375 44.25 C8.931875 44.20875 9.48875 44.1675 10.0625 44.125 C13.60722364 42.78375322 15.16184295 40.24075278 17.375 37.25 C19.05033784 32.22398647 17.75450522 27.27873826 16.375 22.25 C13.02199887 17.71891739 9.07307238 14.35064254 3.375 16.25 Z M18.375 27.25 C18.375 29.56 18.375 31.87 18.375 34.25 C18.705 34.25 19.035 34.25 19.375 34.25 C19.375 31.94 19.375 29.63 19.375 27.25 C19.045 27.25 18.715 27.25 18.375 27.25 Z M33.375 37.25 C34.375 39.25 34.375 39.25 34.375 39.25 Z M2.375 46.25 C6.375 47.25 6.375 47.25 6.375 47.25 Z " fill="#949598" transform="translate(634.625,615.75)"/>
<path d="M0 0 C6.35882399 3.15792948 10.31661184 8.14977881 13.4453125 14.41796875 C15.82120819 21.8988295 15.55349733 31.63397122 12.25 38.7734375 C8.46633449 45.09726047 3.46182109 49.41951962 -3.59375 51.671875 C-10.72857569 53.29584652 -15.99136328 52.23279258 -22.390625 48.6953125 C-28.32338623 44.69977943 -32.28898482 39.19928485 -33.6875 32.1484375 C-34.54674185 22.73257892 -33.77513138 14.87069725 -28.5625 6.8984375 C-20.41558231 -0.89426638 -11.08044616 -3.51095533 0 0 Z " fill="#F0D60F" transform="translate(245.6875,471.8515625)"/>
<path d="M0 0 C6.12363628 3.67677104 11.04828937 9.46702599 13.1875 16.3125 C15.05550958 25.65254792 13.30893802 34.18093193 8.52734375 42.3828125 C4.81102152 47.39669809 -0.63752318 49.58750773 -6.375 51.5 C-13.288853 52.24910308 -18.60753357 51.47800698 -24.375 47.5 C-29.78770474 42.6887069 -33.74657459 37.96709594 -34.59936523 30.5480957 C-35.51674158 13.51540798 -35.51674158 13.51540798 -30.375 7.5 C-22.24305448 -0.98846088 -11.49775785 -5.08511404 0 0 Z " fill="#F0D60F" transform="translate(741.375,472.5)"/>
<path d="M0 0 C1.3295874 0.01027222 1.3295874 0.01027222 2.68603516 0.02075195 C12.11555278 0.25236936 19.50776694 2.45414271 26.1875 9.4375 C29.66808367 14.40040283 31.98848701 18.44243503 33.1875 24.4375 C28.8975 24.4375 24.6075 24.4375 20.1875 24.4375 C16.1875 17.6875 16.1875 17.6875 16.1875 15.4375 C15.61 15.14875 15.0325 14.86 14.4375 14.5625 C12.1875 13.4375 12.1875 13.4375 10.53125 12.39453125 C4.58983213 9.96845229 -4.41175855 10.40575812 -10.46484375 12.2421875 C-16.26370689 15.46996161 -19.40063401 21.12044824 -21.421875 27.30078125 C-23.25815479 37.3452317 -22.11714675 46.6566016 -16.64453125 55.27734375 C-13.87137254 58.94796483 -11.16295385 61.03913984 -6.8125 62.4375 C0.85324366 63.24810736 7.86743346 63.25947669 14.1875 58.4375 C16.9601849 55.51888431 18.3710053 53.07048939 20.1875 49.4375 C24.4775 49.4375 28.7675 49.4375 33.1875 49.4375 C30.13303846 58.60088462 25.76065246 65.62666624 17.1875 70.4375 C8.68089197 74.47660885 -2.44678984 75.04024637 -11.55859375 72.74609375 C-13.81347697 71.81209533 -15.76367461 70.7610412 -17.8125 69.4375 C-18.51890625 68.99019531 -19.2253125 68.54289063 -19.953125 68.08203125 C-28.54020023 62.15058855 -32.65418158 54.61737617 -34.8125 44.4375 C-36.0197863 32.12074073 -34.54492237 21.09331767 -26.51171875 11.21875 C-18.86559301 3.20350094 -10.94158002 -0.12880933 0 0 Z " fill="#060600" transform="translate(865.8125,460.5625)"/>
<path d="M0 0 C3.48517992 1.93276125 5.68553462 3.96675661 6.875 7.875 C6.91625 8.90625 6.9575 9.9375 7 11 C7.12375 12.175625 7.2475 13.35125 7.375 14.5625 C7 18 7 18 4.8125 20.8125 C0.26923077 24.34615385 0.26923077 24.34615385 -3 25 C-6.39176193 24.55023438 -9.67635965 23.80013564 -13 23 C-14.27260229 22.89117673 -14.27260229 22.89117673 -15.8125 24.5625 C-18 26 -18 26 -20.125 25.75 C-22 25 -22 25 -24 24 C-24.27070312 23.34773437 -24.54140625 22.69546875 -24.8203125 22.0234375 C-25.84040456 19.79740668 -25.84040456 19.79740668 -28.2421875 19.1015625 C-29.54542969 18.86566406 -29.54542969 18.86566406 -30.875 18.625 C-31.73867188 18.45226562 -32.60234375 18.27953125 -33.4921875 18.1015625 C-36.3688905 17.98506051 -37.68178744 18.30412638 -40 20 C-40.870377 23.12311746 -41.32301945 24.88944236 -41 28 C-37.8419943 32.90035367 -33.78475196 33.90095379 -28.43359375 35.32421875 C-23.17634075 36.784098 -19.68544892 39.05130473 -16 43 C-15.01 43.495 -15.01 43.495 -14 44 C-12.51240497 49.55631521 -11.99640534 55.32969014 -13 61 C-15.49989404 65.2655959 -18.47403914 69.21724831 -23.33203125 70.72265625 C-26.56613943 71.05885198 -29.74790402 71.20794703 -33 71.25 C-34.19625 71.27578125 -35.3925 71.3015625 -36.625 71.328125 C-41.8071807 70.82430188 -44.21141988 68.82442468 -47.75 65.125 C-49.89106387 62.15130018 -50.80529747 60.60199671 -51 57 C-50.67 56.01 -50.34 55.02 -50 54 C-47.69 54 -45.38 54 -43 54 C-42.05598958 55.79036458 -41.11197917 57.58072917 -40.16796875 59.37109375 C-39.00980201 61.32267987 -39.00980201 61.32267987 -36 62 C-30.96056114 62.40579751 -26.58191774 62.36486077 -22 60 C-20.79917958 54.20235727 -20.79917958 54.20235727 -23 49 C-24.81601365 47.79996657 -24.81601365 47.79996657 -27 47 C-28.19496094 46.50693359 -28.19496094 46.50693359 -29.4140625 46.00390625 C-31.17775166 45.31921121 -32.94347526 44.63973927 -34.7109375 43.96484375 C-35.59007812 43.62582031 -36.46921875 43.28679688 -37.375 42.9375 C-38.18710937 42.63714844 -38.99921875 42.33679688 -39.8359375 42.02734375 C-44.14599395 39.98123392 -47.93417397 35.57574625 -49.75 31.1875 C-50.27391986 26.60320124 -50.67559952 22.66912824 -48.9375 18.375 C-45.41268584 14.05426006 -41.6694934 9.97095655 -36 9 C-30.91941582 8.71241976 -26.78890581 9.25020749 -22 11 C-20.296875 12.57421875 -20.296875 12.57421875 -19 14 C-18.85304688 13.40832031 -18.70609375 12.81664062 -18.5546875 12.20703125 C-16.86635502 6.25905534 -15.16330497 3.44220331 -10 0 C-6.14217025 -1.28594325 -3.95337324 -0.93808857 0 0 Z M-11 7 C-13.26093748 9.68854587 -13.26093748 9.68854587 -12.7578125 12.04296875 C-12.54898438 12.75066406 -12.34015625 13.45835937 -12.125 14.1875 C-11.75375 15.445625 -11.3825 16.70375 -11 18 C-10.67 18 -10.34 18 -10 18 C-10 14.37 -10 10.74 -10 7 C-10.33 7 -10.66 7 -11 7 Z M2 7 C1.67 7.66 1.34 8.32 1 9 C1.66 9 2.32 9 3 9 C2.67 8.34 2.34 7.68 2 7 Z M-5 9 C-4 12 -4 12 -4 12 Z M-3 9 C-2 11 -2 11 -2 11 Z M-14 10 C-14 11.65 -14 13.3 -14 15 C-13.67 15 -13.34 15 -13 15 C-13 13.35 -13 11.7 -13 10 C-13.33 10 -13.66 10 -14 10 Z M1 10 C-0.485 12.475 -0.485 12.475 -2 15 C-0.68 15.33 0.64 15.66 2 16 C2 15.34 2 14.68 2 14 C2.66 14 3.32 14 4 14 C4 13.01 4 12.02 4 11 C3.01 10.67 2.02 10.34 1 10 Z M-5 17 C-5.33 17.99 -5.66 18.98 -6 20 C-3.525 20.495 -3.525 20.495 -1 21 C-1.33 20.01 -1.66 19.02 -2 18 C-2.99 17.67 -3.98 17.34 -5 17 Z M0 17 C1 19 1 19 1 19 Z M-17 19 C-16 21 -16 21 -16 21 Z " fill="#98999B" transform="translate(976,606)"/>
<path d="M0 0 C9.08171927 3.26374286 15.25891529 9.54332577 20.3125 17.53125 C23.03101814 24.93921193 22.44443437 34.57767412 19.8125 41.90625 C15.52532925 50.89885205 9.50404373 55.75010107 0.375 59.46875 C-6.80733196 61.86286065 -16.17403144 61.66620114 -23.0625 58.46875 C-31.22443193 53.62853456 -37.86973291 46.68683251 -40.625 37.46875 C-41.89055563 27.72509162 -40.66694251 19.40600751 -35.1171875 11.25390625 C-31.0566539 6.1829608 -26.44853929 3.23226254 -20.625 0.46875 C-15.28736467 -2.20006767 -5.80381768 -1.17458215 0 0 Z M-28.625 15.46875 C-33.02504628 21.36998854 -33.3416283 27.30246698 -32.625 34.46875 C-31.24348714 40.99953805 -27.52113371 46.34976884 -22.25 50.40625 C-15.75643532 54.13449436 -7.15073977 53.65422883 -0.08984375 51.8046875 C6.21470314 49.01076499 10.596699 43.81278585 13.25 37.53125 C15.45814656 30.65558408 14.89810437 25.06007067 11.7734375 18.64453125 C8.2624666 13.18193128 2.52130588 8.51751863 -3.625 6.46875 C-13.79771924 5.37108577 -21.64929108 7.87144326 -28.625 15.46875 Z " fill="#B7B5AE" transform="translate(577.625,616.53125)"/>
<path d="M0 0 C20.7702329 -1.01814867 20.7702329 -1.01814867 28 5 C31.74988404 8.93143101 35.26572867 12.797186 37 18 C37.350625 18.99 37.70125 19.98 38.0625 21 C40.56868109 29.89411634 39.32522825 38.94141684 35 47 C34.05629414 48.44053152 33.07586462 49.8575906 32.0625 51.25 C31.55847656 51.95640625 31.05445313 52.6628125 30.53515625 53.390625 C30.02855469 53.92171875 29.52195312 54.4528125 29 55 C28.01 55 27.02 55 26 55 C25.67 55.66 25.34 56.32 25 57 C19.24655924 60.88745997 14.5687677 61.1408074 7.75 61.0625 C7.00492188 61.05798828 6.25984375 61.05347656 5.4921875 61.04882812 C3.6614236 61.03709246 1.83070127 61.0191585 0 61 C-1.30248086 58.39503827 -1.12707873 56.48923447 -1.12939453 53.57226562 C-1.13254669 52.43768921 -1.13569885 51.30311279 -1.13894653 50.13415527 C-1.1369223 48.90394653 -1.13489807 47.67373779 -1.1328125 46.40625 C-1.13376923 45.14864868 -1.13472595 43.89104736 -1.13571167 42.59533691 C-1.13639322 39.93217553 -1.13503992 37.26910542 -1.13037109 34.60595703 C-1.1246739 31.18936749 -1.12795387 27.7728565 -1.13394356 24.35626984 C-1.13842226 21.10209372 -1.13528813 17.84792714 -1.1328125 14.59375 C-1.13483673 13.36354126 -1.13686096 12.13333252 -1.13894653 10.86584473 C-1.13579437 9.73126831 -1.13264221 8.59669189 -1.12939453 7.42773438 C-1.12859894 6.42560913 -1.12780334 5.42348389 -1.12698364 4.39099121 C-1 2 -1 2 0 0 Z M7 10 C7 23.53 7 37.06 7 51 C16.77845689 52.62985817 16.77845689 52.62985817 21 51 C26.46129274 45.55111929 29.62676532 39.57240839 31 32 C31 28.72782865 30.73516599 26.37445544 30 23.25 C29.814375 22.45078125 29.62875 21.6515625 29.4375 20.828125 C29.293125 20.22484375 29.14875 19.6215625 29 19 C28.34 19 27.68 19 27 19 C26.67 17.68 26.34 16.36 26 15 C25.34 15 24.68 15 24 15 C23.731875 14.360625 23.46375 13.72125 23.1875 13.0625 C22.11332248 10.66868314 22.11332248 10.66868314 19 10 C15.04 10 11.08 10 7 10 Z " fill="#959699" transform="translate(776,616)"/>
<path d="M0 0 C0.87785156 -0.04125 1.75570312 -0.0825 2.66015625 -0.125 C8.74953285 -0.19738486 12.12388424 1.05360155 16.80053711 4.9609375 C20.61981293 8.69434032 21.97684181 12.22440396 22.375 17.5 C22.30189265 23.90211534 21.72662491 28.63641921 17.375 33.5 C16.385 33.5 15.395 33.5 14.375 33.5 C13.941875 34.428125 13.941875 34.428125 13.5 35.375 C12.375 37.5 12.375 37.5 10.375 39.5 C10.76171875 39.99628906 11.1484375 40.49257813 11.546875 41.00390625 C15.9212147 46.7100375 20.19334882 52.5583826 22.375 59.5 C21.88 60.49 21.88 60.49 21.375 61.5 C19.065 61.5 16.755 61.5 14.375 61.5 C14.375 60.84 14.375 60.18 14.375 59.5 C13.715 59.5 13.055 59.5 12.375 59.5 C10.5 57.0859375 10.5 57.0859375 8.375 53.875 C7.67375 52.83085938 6.9725 51.78671875 6.25 50.7109375 C4.4731297 47.66804711 3.46821034 44.82843504 2.375 41.5 C1.715 41.17 1.055 40.84 0.375 40.5 C0.375 39.84 0.375 39.18 0.375 38.5 C-1.275 38.5 -2.925 38.5 -4.625 38.5 C-4.625 46.09 -4.625 53.68 -4.625 61.5 C-6.275 61.5 -7.925 61.5 -9.625 61.5 C-12.24914755 58.87585245 -11.87798097 57.73018938 -11.88378906 54.07226562 C-11.89009338 52.93768921 -11.89639771 51.80311279 -11.90289307 50.63415527 C-11.8988446 49.40394653 -11.89479614 48.17373779 -11.890625 46.90625 C-11.89253845 45.64864868 -11.8944519 44.39104736 -11.89642334 43.09533691 C-11.89778649 40.43207125 -11.89508006 37.7691707 -11.88574219 35.10595703 C-11.87434752 31.68928606 -11.88090748 28.27292928 -11.89288712 24.85626984 C-11.90184454 21.60208521 -11.89557628 18.34793873 -11.890625 15.09375 C-11.89467346 13.86354126 -11.89872192 12.63333252 -11.90289307 11.36584473 C-11.89658875 10.23126831 -11.89028442 9.09669189 -11.88378906 7.92773438 C-11.88219788 6.92560913 -11.88060669 5.92348389 -11.87896729 4.89099121 C-11.21440815 -1.36554312 -4.84919595 0.05549867 0 0 Z M-4.625 8.5 C-4.625 8.83 -4.625 9.16 -4.625 9.5 C-0.665 9.5 3.295 9.5 7.375 9.5 C7.375 9.17 7.375 8.84 7.375 8.5 C3.415 8.5 -0.545 8.5 -4.625 8.5 Z M-4.625 10.5 C-4.625 17.1 -4.625 23.7 -4.625 30.5 C3.03485398 31.31767004 3.03485398 31.31767004 10.31640625 29.48046875 C13.97083508 25.52059512 14.24982215 20.62091209 14.375 15.5 C13.715 15.5 13.055 15.5 12.375 15.5 C12.230625 14.860625 12.08625 14.22125 11.9375 13.5625 C11.56492819 11.52454854 11.56492819 11.52454854 10.375 10.5 C7.8422235 10.42679837 5.34396082 10.40772431 2.8125 10.4375 C0.358125 10.458125 -2.09625 10.47875 -4.625 10.5 Z M20.375 15.5 C21.375 17.5 21.375 17.5 21.375 17.5 Z " fill="#959799" transform="translate(870.625,615.5)"/>
<path d="M0 0 C0 4.29 0 8.58 0 13 C-1.42892578 13.14695312 -1.42892578 13.14695312 -2.88671875 13.296875 C-4.14097656 13.44640625 -5.39523437 13.5959375 -6.6875 13.75 C-7.92886719 13.88921875 -9.17023437 14.0284375 -10.44921875 14.171875 C-15.40651294 15.32803162 -17.83140983 17.21836147 -20.60742188 21.45068359 C-22.53563439 26.36519158 -22.47888339 30.84982241 -22.51171875 36.0859375 C-22.52966995 37.14285797 -22.54762115 38.19977844 -22.56611633 39.28872681 C-22.62011938 42.6507778 -22.65408362 46.0126876 -22.6875 49.375 C-22.72068183 51.66017585 -22.75517229 53.9453331 -22.79101562 56.23046875 C-22.87584046 61.82021049 -22.94269985 67.40991108 -23 73 C-26.96 73 -30.92 73 -35 73 C-35 49.57 -35 26.14 -35 2 C-31.37 2 -27.74 2 -24 2 C-23.67 5.3 -23.34 8.6 -23 12 C-22.05125 10.7625 -21.1025 9.525 -20.125 8.25 C-14.46174413 1.77114338 -8.44830868 0 0 0 Z " fill="#060600" transform="translate(822,460)"/>
<path d="M0 0 C1.99926758 0.79980469 1.99926758 0.79980469 3.11767578 2.43554688 C3.40473389 3.1487207 3.69179199 3.86189453 3.98754883 4.59667969 C4.48182373 5.81774414 4.48182373 5.81774414 4.98608398 7.06347656 C6.82368916 12.02633893 8.536544 17.02173135 10.18676758 22.04980469 C10.5419043 23.11199219 10.89704102 24.17417969 11.26293945 25.26855469 C12.75414749 29.77330458 14.08447471 34.14250218 14.99926758 38.79980469 C15.37051758 39.85167969 15.74176758 40.90355469 16.12426758 41.98730469 C16.99926758 44.79980469 16.99926758 44.79980469 15.99926758 46.79980469 C16.65926758 46.79980469 17.31926758 46.79980469 17.99926758 46.79980469 C19.33260091 50.79980469 20.66593424 54.79980469 21.99926758 58.79980469 C21.33926758 59.45980469 20.67926758 60.11980469 19.99926758 60.79980469 C16.37426758 60.42480469 16.37426758 60.42480469 12.99926758 59.79980469 C11.52676361 55.48747162 10.2541136 51.19176578 8.99926758 46.79980469 C2.72926758 46.79980469 -3.54073242 46.79980469 -10.00073242 46.79980469 C-10.33073242 47.45980469 -10.66073242 48.11980469 -11.00073242 48.79980469 C-11.66073242 48.79980469 -12.32073242 48.79980469 -13.00073242 48.79980469 C-12.81510742 49.35667969 -12.62948242 49.91355469 -12.43823242 50.48730469 C-11.9086204 53.28668251 -12.16434934 55.08155966 -13.00073242 57.79980469 C-14.25073242 59.61230469 -14.25073242 59.61230469 -16.00073242 60.79980469 C-18.68823242 60.98730469 -18.68823242 60.98730469 -21.00073242 60.79980469 C-22.28327838 56.43914842 -21.59514168 53.99561854 -20.00073242 49.79980469 C-19.67073242 48.62417969 -19.34073242 47.44855469 -19.00073242 46.23730469 C-18.00073242 42.79980469 -18.00073242 42.79980469 -17.00073242 40.36230469 C-16.13950071 38.15539842 -15.54998972 36.09552855 -15.00073242 33.79980469 C-14.24756843 30.65769866 -13.25673542 27.78281182 -12.00073242 24.79980469 C-11.32047605 22.80438601 -10.65582745 20.80362478 -10.00073242 18.79980469 C-9.48167837 17.21588717 -8.96075197 15.63258235 -8.43823242 14.04980469 C-8.18944336 13.29183594 -7.9406543 12.53386719 -7.68432617 11.75292969 C-7.00073242 9.79980469 -7.00073242 9.79980469 -6.00073242 7.79980469 C-5.34073242 7.79980469 -4.68073242 7.79980469 -4.00073242 7.79980469 C-4.18635742 7.20167969 -4.37198242 6.60355469 -4.56323242 5.98730469 C-5.00073242 3.79980469 -5.00073242 3.79980469 -4.00073242 0.79980469 C-2.00073242 -0.20019531 -2.00073242 -0.20019531 0 0 Z M6.99926758 17.79980469 C7.99926758 19.79980469 7.99926758 19.79980469 7.99926758 19.79980469 Z M-1.00073242 18.79980469 C-4.0634626 22.18978549 -4.60624237 25.07295811 -5.18823242 29.54980469 C-5.34678711 30.72027344 -5.5053418 31.89074219 -5.66870117 33.09667969 C-5.77827148 33.98871094 -5.8878418 34.88074219 -6.00073242 35.79980469 C-2.04073242 35.79980469 1.91926758 35.79980469 5.99926758 35.79980469 C5.66926758 33.48980469 5.33926758 31.17980469 4.99926758 28.79980469 C4.00926758 28.46980469 3.01926758 28.13980469 1.99926758 27.79980469 C2.32926758 26.47980469 2.65926758 25.15980469 2.99926758 23.79980469 C2.33926758 23.79980469 1.67926758 23.79980469 0.99926758 23.79980469 C1.32926758 22.47980469 1.65926758 21.15980469 1.99926758 19.79980469 C1.00926758 19.46980469 0.01926758 19.13980469 -1.00073242 18.79980469 Z M9.99926758 26.79980469 C10.99926758 28.79980469 10.99926758 28.79980469 10.99926758 28.79980469 Z " fill="#96989B" transform="translate(835.000732421875,616.2001953125)"/>
<path d="M0 0 C0 3.63 0 7.26 0 11 C-1.69125 11.2475 -3.3825 11.495 -5.125 11.75 C-10.88161155 12.8006926 -14.7049673 14.5410364 -18.75 18.875 C-22.26461377 24.84984341 -22.33245863 30.69469993 -22.4140625 37.4296875 C-22.43342865 38.42001984 -22.4527948 39.41035217 -22.4727478 40.43069458 C-22.53229553 43.5787101 -22.5788297 46.72676268 -22.625 49.875 C-22.6632026 52.01564052 -22.70225565 54.15626604 -22.7421875 56.296875 C-22.83797673 61.5311275 -22.92209928 66.76545194 -23 72 C-26.63 72 -30.26 72 -34 72 C-34 48.57 -34 25.14 -34 1 C-30.37 1 -26.74 1 -23 1 C-22.67 4.3 -22.34 7.6 -22 11 C-20.453125 9.1128125 -20.453125 9.1128125 -18.875 7.1875 C-13.04951614 0.60470324 -8.53755116 -0.38807051 0 0 Z " fill="#000000" transform="translate(327,461)"/>
<path d="M0 0 C3.63 0 7.26 0 11 0 C11 30.03 11 60.06 11 91 C7.37 91 3.74 91 0 91 C0 60.97 0 30.94 0 0 Z " fill="#000000" transform="translate(510,442)"/>
<path d="M0 0 C2.14576637 -0.02685938 4.29162645 -0.04633088 6.4375 -0.0625 C7.63246094 -0.07410156 8.82742188 -0.08570313 10.05859375 -0.09765625 C13 0 13 0 14 1 C14.13375764 2.79876739 14.19899233 4.60267393 14.23706055 6.40600586 C14.26346115 7.56067856 14.28986176 8.71535126 14.31706238 9.90501404 C14.34004898 11.16225784 14.36303558 12.41950165 14.38671875 13.71484375 C14.41224319 14.99605606 14.43776764 16.27726837 14.46406555 17.5973053 C14.51710067 20.31343368 14.56601732 23.02960243 14.61254883 25.74584961 C14.67292479 29.23108754 14.74713965 32.71587951 14.82492352 36.20076656 C14.89629248 39.5178048 14.95310657 42.83505571 15.01171875 46.15234375 C15.04077805 47.40756332 15.06983734 48.6627829 15.09977722 49.95603943 C15.12519341 51.69277672 15.12519341 51.69277672 15.15112305 53.46459961 C15.17031296 54.48750595 15.18950287 55.51041229 15.20927429 56.5643158 C15 59 15 59 13 61 C9.9609375 61.1953125 9.9609375 61.1953125 6.375 61.125 C4.59222656 61.09792969 4.59222656 61.09792969 2.7734375 61.0703125 C1.40058594 61.03550781 1.40058594 61.03550781 0 61 C-1.33709047 58.32581905 -1.07904171 56.34995607 -1.02172852 53.35693359 C-0.99158409 51.58532364 -0.99158409 51.58532364 -0.96083069 49.77792358 C-0.93379562 48.49769318 -0.90676056 47.21746277 -0.87890625 45.8984375 C-0.85529526 44.59170074 -0.83168427 43.28496399 -0.80735779 41.93862915 C-0.74450236 38.46315875 -0.67543996 34.98783816 -0.60510254 31.51251221 C-0.5344322 27.96674425 -0.46960747 24.42087001 -0.40429688 20.875 C-0.2752658 13.91655114 -0.1396799 6.95824302 0 0 Z " fill="#939598" transform="translate(754,616)"/>
<path d="M0 0 C4.29 0 8.58 0 13 0 C13 20.13 13 40.26 13 61 C8.38 61 3.76 61 -1 61 C-1.02255497 53.19424413 -1.04091738 45.38850593 -1.05181217 37.58272648 C-1.05704002 33.9585404 -1.06413587 30.3343777 -1.07543945 26.71020508 C-1.08627184 23.21540025 -1.09227758 19.72061796 -1.09487724 16.22579765 C-1.09763551 14.23760611 -1.10544688 12.24942369 -1.11329651 10.26124573 C-1.11337204 9.06007614 -1.11344757 7.85890656 -1.11352539 6.62133789 C-1.115746 5.55766495 -1.11796661 4.493992 -1.12025452 3.39808655 C-1 1 -1 1 0 0 Z " fill="#939598" transform="translate(675,616)"/>
<path d="M0 0 C4.15850766 2.3839432 7.04457167 5.40761945 9.5 9.5 C10.69923423 15.49617117 10.37376866 19.82688805 7 25 C3.2979373 28.75263733 0.10407914 30.83814776 -5.25 31.25 C-10.14043661 30.92397089 -13.77288498 29.91857263 -17.55078125 26.6640625 C-21.40735943 22.20998629 -21.79661341 17.63856073 -21.55859375 11.8828125 C-20.69472328 7.42451593 -18.56316774 4.72958263 -15 2 C-10.29063196 -0.87467674 -5.34371953 -0.97292549 0 0 Z " fill="#B7B6B6" transform="translate(574,631)"/>
<path d="M0 0 C5.63101063 2.97192228 8.50055712 7.49511494 10.875 13.3125 C10.875 15.2925 10.875 17.2725 10.875 19.3125 C-3.975 19.3125 -18.825 19.3125 -34.125 19.3125 C-32.95240312 9.93172495 -30.6875422 6.34886655 -23.80859375 0.51171875 C-17.64483544 -3.8787077 -6.6643968 -2.75461734 0 0 Z " fill="#EFD50F" transform="translate(660.125,472.6875)"/>
<path d="M0 0 C5.63101063 2.97192228 8.50055712 7.49511494 10.875 13.3125 C10.875 15.2925 10.875 17.2725 10.875 19.3125 C-3.975 19.3125 -18.825 19.3125 -34.125 19.3125 C-32.95240312 9.93172495 -30.6875422 6.34886655 -23.80859375 0.51171875 C-17.64483544 -3.8787077 -6.6643968 -2.75461734 0 0 Z " fill="#EFD50F" transform="translate(383.125,472.6875)"/>
<path d="M0 0 C2.60126785 1.30063393 2.6444761 2.23526259 3.60400391 4.93725586 C3.90416412 5.77159653 4.20432434 6.60593719 4.51358032 7.46556091 C4.83136444 8.37282425 5.14914856 9.28008759 5.4765625 10.21484375 C5.80667328 11.14091934 6.13678406 12.06699493 6.47689819 13.02113342 C7.17455321 14.98284285 7.86867869 16.94581049 8.55957031 18.90991211 C9.62023821 21.92396861 10.69196484 24.93390964 11.765625 27.94335938 C12.44075965 29.84612172 13.11526021 31.74910919 13.7890625 33.65234375 C14.11089508 34.55758286 14.43272766 35.46282196 14.76431274 36.39549255 C15.05816864 37.23298538 15.35202454 38.07047821 15.65478516 38.93334961 C16.04544662 40.0413517 16.04544662 40.0413517 16.44400024 41.17173767 C17 43 17 43 17 45 C6.44 45 -4.12 45 -15 45 C-13.875 37.125 -13.875 37.125 -12.60131836 33.71704102 C-12.32110336 32.95678116 -12.04088837 32.1965213 -11.75218201 31.41322327 C-11.45111038 30.61814865 -11.15003876 29.82307404 -10.83984375 29.00390625 C-10.53051407 28.17036118 -10.22118439 27.3368161 -9.90248108 26.47801208 C-8.92069957 23.83701379 -7.92927183 21.19976071 -6.9375 18.5625 C-6.26693583 16.76391121 -5.59700727 14.96508531 -4.92773438 13.16601562 C-3.29249742 8.77456627 -1.64860417 4.38644769 0 0 Z " fill="#ECD30F" transform="translate(455,458)"/>
<path d="M0 0 C1.87171875 -0.00386719 1.87171875 -0.00386719 3.78125 -0.0078125 C5.74578125 0.00378906 5.74578125 0.00378906 7.75 0.015625 C9.0596875 0.00789062 10.369375 0.00015625 11.71875 -0.0078125 C12.9665625 -0.00523437 14.214375 -0.00265625 15.5 0 C16.64984375 0.00225586 17.7996875 0.00451172 18.984375 0.00683594 C21.75 0.265625 21.75 0.265625 23.75 2.265625 C24.0625 4.765625 24.0625 4.765625 23.75 7.265625 C20.54619983 9.40149178 19.73060033 9.49694675 16.0625 9.390625 C15.25425781 9.37257813 14.44601562 9.35453125 13.61328125 9.3359375 C12.69095703 9.30113281 12.69095703 9.30113281 11.75 9.265625 C11.75444122 9.8728389 11.75888245 10.4800528 11.76345825 11.10566711 C11.80764612 17.41571707 11.83784749 23.7257232 11.85986328 30.03588867 C11.86993155 32.39202662 11.88358706 34.74815204 11.90087891 37.10424805 C11.92509076 40.48749886 11.93647478 43.87058472 11.9453125 47.25390625 C11.95563507 48.31023758 11.96595764 49.36656891 11.97659302 50.45491028 C11.97674408 51.43570053 11.97689514 52.41649078 11.97705078 53.42700195 C11.981492 54.29081985 11.98593323 55.15463776 11.99050903 56.04463196 C11.75 58.265625 11.75 58.265625 9.75 61.265625 C7.25 61.578125 7.25 61.578125 4.75 61.265625 C2.75 59.265625 2.75 59.265625 2.50949097 57.12692261 C2.51393219 56.2431192 2.51837341 55.3593158 2.52294922 54.44873047 C2.52310028 53.44784393 2.52325134 52.4469574 2.52340698 51.41574097 C2.53372955 50.33237457 2.54405212 49.24900818 2.5546875 48.1328125 C2.5575174 47.02584015 2.56034729 45.9188678 2.56326294 44.77835083 C2.57448481 41.23233363 2.59959309 37.68656625 2.625 34.140625 C2.6350272 31.74088906 2.6441535 29.34114917 2.65234375 26.94140625 C2.67443068 21.04939349 2.70792793 15.15752709 2.75 9.265625 C-0.22 9.265625 -3.19 9.265625 -6.25 9.265625 C-6.91 6.955625 -7.57 4.645625 -8.25 2.265625 C-5.49055395 -0.49382105 -3.85763302 0.00756823 0 0 Z " fill="#959799" transform="translate(901.25,615.734375)"/>
<path d="M0 0 C8.14738496 -0.50921156 14.56216861 1.93191997 21 7 C28.07484062 13.95338413 31.11791458 19.36540387 31.4375 29.3125 C31.20825299 38.99818634 28.7233644 46.12831815 22.0703125 53.2421875 C15.60244734 58.73377113 8.36016925 61.15773904 0 61 C0 58.69 0 56.38 0 54 C0.65226563 53.82984375 1.30453125 53.6596875 1.9765625 53.484375 C10.66809911 51.0743324 16.41139138 47.91318543 21 40 C23.40574099 34.61572255 23.95376472 29.36387676 22.34765625 23.69921875 C19.59507699 16.67010004 15.32067757 12.96529897 8.9375 9.1875 C5.93434319 7.97345789 3.20924226 7.38205265 0 7 C0 4.69 0 2.38 0 0 Z " fill="#84837F" transform="translate(568,616)"/>
<path d="M0 0 C0.66 0.66 1.32 1.32 2 2 C0.02 2.99 0.02 2.99 -2 4 C-2 26.11 -2 48.22 -2 71 C2.09684763 73.04842382 3.87153562 73.26619924 8.32910156 73.31884766 C10.25064056 73.34865219 10.25064056 73.34865219 12.21099854 73.37905884 C13.6042056 73.39093436 14.9974145 73.40259727 16.390625 73.4140625 C17.8198152 73.43277832 19.24899441 73.45235205 20.67816162 73.4727478 C24.43291736 73.52403148 28.18770892 73.56367716 31.94262695 73.60089111 C35.7769453 73.64095449 39.61111517 73.69203615 43.4453125 73.7421875 C50.96343972 73.83890215 58.4816389 73.92332101 66 74 C65.67 74.66 65.34 75.32 65 76 C57.00259114 76.06958568 49.00530931 76.12285447 41.00767231 76.15543652 C37.29382426 76.17107623 33.58018372 76.19228309 29.86645508 76.22631836 C26.28083959 76.25897295 22.69542338 76.27686576 19.10967064 76.28463173 C17.74334769 76.29016435 16.37703535 76.30096836 15.0107975 76.31719017 C13.09365143 76.33904275 11.17630378 76.34022607 9.2590332 76.34057617 C8.16871292 76.34723801 7.07839264 76.35389984 5.95503235 76.36076355 C1.68206981 75.8391012 -0.79033747 74.22142187 -3.78625488 71.19638062 C-5.38966908 68.29485886 -5.39440975 66.16755971 -5.41992188 62.85791016 C-5.43583374 61.61627106 -5.45174561 60.37463196 -5.46813965 59.09536743 C-5.46940706 57.74326637 -5.46958367 56.3911639 -5.46875 55.0390625 C-5.47585458 53.64667454 -5.48355402 52.2542895 -5.49182129 50.86190796 C-5.505259 47.94496524 -5.50683863 45.02829311 -5.50097656 42.11132812 C-5.49508624 38.38305959 -5.52564484 34.65609593 -5.56609344 30.92807961 C-5.5920151 28.05230786 -5.59484383 25.17684826 -5.59120178 22.3009758 C-5.59288945 20.9271047 -5.60249813 19.55321863 -5.62034607 18.17946243 C-5.75994451 6.10449741 -5.75994451 6.10449741 -2.46289062 2.11083984 C-1.65013672 1.4142627 -0.83738281 0.71768555 0 0 Z " fill="#D3BD77" transform="translate(534,609)"/>
<path d="M0 0 C1.32 0 2.64 0 4 0 C4.33 2.97 4.66 5.94 5 9 C5.66 8.67 6.32 8.34 7 8 C11.63213493 7.44487185 14.98172127 7.3635758 19 9.875 C22.51487778 13.60955764 22.27590722 16.56828746 22.21875 21.51953125 C21.93537507 24.73280049 21.12264382 26.57412135 19 29 C15.90255586 30.9541815 13.96660387 31.16554239 10.375 30.625 C9.59898437 30.51414062 8.82296875 30.40328125 8.0234375 30.2890625 C7.35570312 30.19367187 6.68796875 30.09828125 6 30 C5.34 30 4.68 30 4 30 C2.68 30 1.36 30 0 30 C0 20.1 0 10.2 0 0 Z M5.5625 14.0625 C3.51437852 17.91296839 3.77314304 19.85935777 5 24 C6.61548201 26.12894624 6.61548201 26.12894624 9 27 C11.83810733 26.86155574 13.43942127 26.40041338 15.75 24.75 C17.41517586 22.4187538 17.86339946 20.86861125 18 18 C16.8584081 15.7168162 15.80987317 13.80987317 14 12 C10.12656308 11.48354174 8.59599949 11.49569274 5.5625 14.0625 Z " fill="#939598" transform="translate(466,628)"/>
<path d="M0 0 C3.263278 -0.57107365 5.31129685 -0.45148318 8.109375 1.3828125 C13.21581598 5.68787771 15.69742181 8.6716399 16.3125 15.4375 C15.82848315 20.95529214 14.09993758 23.87506384 10.25 27.8125 C6.67718427 30.21727982 4.25613558 30.74463186 0 31 C0 29.02 0 27.04 0 25 C1.134375 24.525625 2.26875 24.05125 3.4375 23.5625 C5.84577045 22.19683444 6.81405137 21.47802831 7.828125 18.87109375 C8.41446646 15.00251479 8.58256769 12.84148666 6.3125 9.5625 C4.25208264 8.17032611 2.28438149 6.97902064 0 6 C0 4.02 0 2.04 0 0 Z " fill="#868686" transform="translate(568,631)"/>
<path d="M0 0 C1.65 0 3.3 0 5 0 C5.34933594 0.92683594 5.69867188 1.85367188 6.05859375 2.80859375 C6.51363281 4.00613281 6.96867187 5.20367188 7.4375 6.4375 C8.11619141 8.22994141 8.11619141 8.22994141 8.80859375 10.05859375 C9.7144826 12.84445723 9.7144826 12.84445723 11 14 C11.30292969 13.07316406 11.60585938 12.14632812 11.91796875 11.19140625 C12.33691406 9.99386719 12.75585938 8.79632812 13.1875 7.5625 C13.59355469 6.36753906 13.99960937 5.17257812 14.41796875 3.94140625 C16 1 16 1 18.67578125 0.08984375 C19.82626953 0.04537109 19.82626953 0.04537109 21 0 C20.40405108 4.5007486 19.23171075 8.30276716 17.49609375 12.4921875 C17.00302734 13.69101562 16.50996094 14.88984375 16.00195312 16.125 C15.48060478 17.37505674 14.95911869 18.62505604 14.4375 19.875 C13.91153536 21.14820052 13.3861391 22.421636 12.86132812 23.6953125 C11.57978638 26.79923011 10.29251196 29.90063822 9 33 C7.35 33 5.7 33 4 33 C4.52500368 30.11247976 5.14811362 27.63203023 6.25 24.89453125 C7.26523255 19.62272475 5.76017757 16.5384497 3.625 11.75 C2.94640572 10.16321187 2.27174694 8.57473332 1.6015625 6.984375 C1.29557129 6.29053711 0.98958008 5.59669922 0.67431641 4.88183594 C0 3 0 3 0 0 Z " fill="#939598" transform="translate(490,636)"/>
<path d="M0 0 C3.62771552 0.88320639 4.97802955 2.36925437 6.94140625 5.47265625 C7.34986239 9.63745015 6.93254491 13.16435322 4.37890625 16.53515625 C0.82872717 17.90060974 -2.37189498 18.37060466 -6.05859375 17.47265625 C-9.34685578 14.59542698 -10.80790807 12.70101608 -11.68359375 8.41015625 C-10.33128513 2.05430574 -6.18371261 -0.4576182 0 0 Z " fill="#F4F4F4" transform="translate(570.05859375,637.52734375)"/>
<path d="M0 0 C1.9375 0.6875 1.9375 0.6875 4 2 C5.08805038 5.81347629 5.12130945 9.49610858 5.11352539 13.44262695 C5.11344986 14.72357742 5.11337433 16.00452789 5.11329651 17.32429504 C5.10819065 18.71229085 5.10297467 20.10028625 5.09765625 21.48828125 C5.09578975 22.91603038 5.09436694 24.34378015 5.09336853 25.77153015 C5.08956165 29.51813545 5.07974707 33.2647016 5.06866455 37.0112915 C5.05841102 40.83890249 5.05386248 44.66651984 5.04882812 48.49414062 C5.03812307 55.99611154 5.02106873 63.49805027 5 71 C4.34 71 3.68 71 3 71 C2.99191315 70.18425003 2.98382629 69.36850006 2.97549438 68.5280304 C2.89748955 60.83290414 2.8101812 53.13796588 2.71247292 45.4430666 C2.66256927 41.48722642 2.61623885 37.53141218 2.578125 33.57543945 C2.54119704 29.75628956 2.49481699 25.93735982 2.44193649 22.11839867 C2.42343238 20.6628322 2.40830975 19.20721862 2.39665604 17.75158119 C2.37972496 15.70956602 2.35067472 13.66805064 2.31884766 11.6262207 C2.30552399 10.46484085 2.29220032 9.303461 2.2784729 8.10688782 C2.00186168 5.02077049 1.31068286 2.78949145 0 0 Z " fill="#CFCC96" transform="translate(601,609)"/>
<path d="M0 0 C2.5625 0.3125 2.5625 0.3125 4.4375 1.5 C5.5625 3.3125 5.5625 3.3125 5.25 5.875 C5.023125 6.679375 4.79625 7.48375 4.5625 8.3125 C4.4134288 10.3870356 4.4134288 10.3870356 5.5625 12.3125 C4.5725 13.7975 4.5725 13.7975 3.5625 15.3125 C2.22916667 14.64583333 0.89583333 13.97916667 -0.4375 13.3125 C-0.7675 13.9725 -1.0975 14.6325 -1.4375 15.3125 C-2.0975 15.3125 -2.7575 15.3125 -3.4375 15.3125 C-4.73839831 12.71070337 -4.60590078 10.7155812 -4.625 7.8125 C-4.63917969 6.8328125 -4.65335938 5.853125 -4.66796875 4.84375 C-4.35161059 1.36917225 -3.46327464 0.44400957 0 0 Z M-0.4375 4.3125 C0.5625 7.3125 0.5625 7.3125 0.5625 7.3125 Z M1.5625 4.3125 C2.5625 6.3125 2.5625 6.3125 2.5625 6.3125 Z " fill="#95979A" transform="translate(971.4375,610.6875)"/>
<path d="M0 0 C0.66 0.66 1.32 1.32 2 2 C0.02 2.99 0.02 2.99 -2 4 C-2 26.11 -2 48.22 -2 71 C-1.01 71.33 -0.02 71.66 1 72 C0.01 72.99 0.01 72.99 -1 74 C-5 69.25 -5 69.25 -5 67 C-4.34 67 -3.68 67 -3 67 C-3 47.53 -3 28.06 -3 8 C-3.66 8 -4.32 8 -5 8 C-3.8141763 4.62496331 -2.72426311 2.35277269 0 0 Z " fill="#DFD162" transform="translate(534,609)"/>
<path d="M0 0 C0.99 0.99 0.99 0.99 2 2 C-1.98093386 3.88204556 -5.05845177 4.22172679 -9.44262695 4.13525391 C-10.72357742 4.11508209 -12.00452789 4.09491028 -13.32429504 4.0741272 C-14.71229566 4.04182905 -16.10029098 4.00930216 -17.48828125 3.9765625 C-18.91601451 3.95037538 -20.34376495 3.92510999 -21.77153015 3.90072632 C-25.51833946 3.83427081 -29.26478483 3.7553366 -33.0112915 3.67376709 C-36.83876644 3.59265544 -40.66645401 3.5233948 -44.49414062 3.453125 C-51.99635136 3.31365581 -59.49821711 3.16099784 -67 3 C-67 2.67 -67 2.34 -67 2 C-66.19011627 1.98969254 -65.38023254 1.97938507 -64.54580688 1.96876526 C-56.92339284 1.87089635 -49.30106196 1.76839719 -41.67878151 1.66066074 C-37.75984151 1.60543316 -33.84089405 1.55201343 -29.921875 1.50268555 C-26.1417112 1.45503954 -22.36163926 1.40269667 -18.58158493 1.34705925 C-17.13747817 1.32663676 -15.69334623 1.30792349 -14.2491951 1.29092598 C-12.23068749 1.26687994 -10.21226138 1.23626123 -8.19384766 1.20532227 C-6.46843246 1.18200584 -6.46843246 1.18200584 -4.7081604 1.15821838 C-2.0323535 1.18046271 -2.0323535 1.18046271 0 0 Z " fill="#E5D446" transform="translate(603,680)"/>
<path d="M0 0 C0.33 0 0.66 0 1 0 C1 18.81 1 37.62 1 57 C0.67 57 0.34 57 0 57 C0 38.19 0 19.38 0 0 Z " fill="#CDCDCD" transform="translate(672,618)"/>
<path d="M0 0 C0.33 0 0.66 0 1 0 C1 18.81 1 37.62 1 57 C0.67 57 0.34 57 0 57 C0 38.19 0 19.38 0 0 Z " fill="#9D9D9D" transform="translate(689,618)"/>
<path d="M0 0 C4.55555556 0.55555556 4.55555556 0.55555556 6 2 C6.125 4.5 6.125 4.5 6 7 C5 8 5 8 2 8.125 C-1 8 -1 8 -2 7 C-2.1875 4.5625 -2.1875 4.5625 -2 2 C-1.34 1.34 -0.68 0.68 0 0 Z " fill="#181818" transform="translate(566,642)"/>
<path d="M0 0 C0.33 0 0.66 0 1 0 C1 11.22 1 22.44 1 34 C0.67 34 0.34 34 0 34 C0 22.78 0 11.56 0 0 Z " fill="#EDEDED" transform="translate(769,618)"/>
<path d="M0 0 C0.33 0 0.66 0 1 0 C1 11.22 1 22.44 1 34 C0.67 34 0.34 34 0 34 C0 22.78 0 11.56 0 0 Z " fill="#B2B2B2" transform="translate(752,618)"/>
<path d="M0 0 C0.66 0.66 1.32 1.32 2 2 C0.02 2.99 0.02 2.99 -2 4 C-2 5.32 -2 6.64 -2 8 C-2.99 8 -3.98 8 -5 8 C-3.8141763 4.62496331 -2.72426311 2.35277269 0 0 Z " fill="#DACA6D" transform="translate(534,609)"/>
<path d="M0 0 C0.33 0 0.66 0 1 0 C1 2.97 1 5.94 1 9 C0.67 9 0.34 9 0 9 C0 6.03 0 3.06 0 0 Z " fill="#9B9B9B" transform="translate(963,655)"/>
<path d="M0 0 C0.33 0 0.66 0 1 0 C1 2.31 1 4.62 1 7 C0.67 7 0.34 7 0 7 C0 4.69 0 2.38 0 0 Z " fill="#AAAAAA" transform="translate(709,643)"/>
<path d="M0 0 C4 1 4 1 4 1 Z " fill="#BBBBBB" transform="translate(939,677)"/>
<path d="M0 0 C4 1 4 1 4 1 Z " fill="#A8A8A8" transform="translate(724,677)"/>
<path d="M0 0 C4 1 4 1 4 1 Z " fill="#C7C7C7" transform="translate(716,677)"/>
<path d="M0 0 C3 1 3 1 3 1 Z " fill="#9B9B9B" transform="translate(947,677)"/>
<path d="" fill="#FFD570" transform="translate(0,0)"/>
<path d="" fill="#8F8F8F" transform="translate(0,0)"/>
<path d="" fill="#AEAEAE" transform="translate(0,0)"/>
<path d="" fill="#919191" transform="translate(0,0)"/>
<path d="" fill="#ACACAC" transform="translate(0,0)"/>
<path d="" fill="#D4D4D4" transform="translate(0,0)"/>
<path d="" fill="#919191" transform="translate(0,0)"/>
<path d="" fill="#A2A2A2" transform="translate(0,0)"/>
<path d="" fill="#808080" transform="translate(0,0)"/>
<path d="" fill="#B8B8B8" transform="translate(0,0)"/>
<path d="M0 0 C2 1 2 1 2 1 Z " fill="#858585" transform="translate(967,630)"/>
<path d="" fill="#AAAAAA" transform="translate(0,0)"/>
<path d="" fill="#808080" transform="translate(0,0)"/>
<path d="" fill="#FFDA3C" transform="translate(0,0)"/>
<path d="" fill="#878787" transform="translate(0,0)"/>
<path d="" fill="#808080" transform="translate(0,0)"/>
<path d="" fill="#9B9B9B" transform="translate(0,0)"/>
<path d="" fill="#878787" transform="translate(0,0)"/>
<path d="" fill="#808080" transform="translate(0,0)"/>
<path d="" fill="#B8B8B8" transform="translate(0,0)"/>
<path d="" fill="#808080" transform="translate(0,0)"/>
<path d="" fill="#FFFFFF" transform="translate(0,0)"/>
<path d="" fill="#949494" transform="translate(0,0)"/>
<path d="" fill="#808080" transform="translate(0,0)"/>
<path d="" fill="#CBCBCB" transform="translate(0,0)"/>
<path d="" fill="#808080" transform="translate(0,0)"/>
<path d="" fill="#AAAAAA" transform="translate(0,0)"/>
<path d="" fill="#ABABAB" transform="translate(0,0)"/>
<path d="" fill="#808080" transform="translate(0,0)"/>
<path d="" fill="#808080" transform="translate(0,0)"/>
<path d="" fill="#999999" transform="translate(0,0)"/>
<path d="" fill="#808080" transform="translate(0,0)"/>
<path d="" fill="#FFFFFF" transform="translate(0,0)"/>
<path d="" fill="#FFFF3C" transform="translate(0,0)"/>
<path d="" fill="#BCBC7A" transform="translate(0,0)"/>
</svg>
