<svg xmlns="http://www.w3.org/2000/svg" xmlns:xlink="http://www.w3.org/1999/xlink" width="1080" zoomAndPan="magnify" viewBox="0 0 810 809.999993" height="1080" preserveAspectRatio="xMidYMid meet" version="1.2"><defs/><g id="a17911e1de"><g style="fill:#343434;fill-opacity:1;"><g transform="translate(80.999999, 435.648653)"><path style="stroke:none" d="M 29.109375 -62.890625 C 35.742188 -62.890625 41.535156 -61.570312 46.484375 -58.9375 C 51.441406 -56.3125 55.28125 -52.625 58 -47.875 C 60.71875 -43.132812 62.078125 -37.65625 62.078125 -31.4375 C 62.078125 -25.289062 60.71875 -19.828125 58 -15.046875 C 55.28125 -10.273438 51.425781 -6.570312 46.4375 -3.9375 C 41.457031 -1.3125 35.679688 0 29.109375 0 L 5.546875 0 L 5.546875 -62.890625 Z M 28.125 -13.25 C 33.914062 -13.25 38.421875 -14.832031 41.640625 -18 C 44.867188 -21.164062 46.484375 -25.644531 46.484375 -31.4375 C 46.484375 -37.226562 44.867188 -41.738281 41.640625 -44.96875 C 38.421875 -48.195312 33.914062 -49.8125 28.125 -49.8125 L 20.875 -49.8125 L 20.875 -13.25 Z M 28.125 -13.25 "/></g></g><g style="fill:#343434;fill-opacity:1;"><g transform="translate(146.113467, 435.648653)"><path style="stroke:none" d="M 2.515625 -25.078125 C 2.515625 -30.210938 3.484375 -34.722656 5.421875 -38.609375 C 7.359375 -42.492188 10 -45.476562 13.34375 -47.5625 C 16.6875 -49.65625 20.421875 -50.703125 24.546875 -50.703125 C 28.066406 -50.703125 31.15625 -49.984375 33.8125 -48.546875 C 36.46875 -47.117188 38.515625 -45.238281 39.953125 -42.90625 L 39.953125 -49.984375 L 55.265625 -49.984375 L 55.265625 0 L 39.953125 0 L 39.953125 -7.078125 C 38.460938 -4.742188 36.382812 -2.859375 33.71875 -1.421875 C 31.0625 0.00390625 27.972656 0.71875 24.453125 0.71875 C 20.390625 0.71875 16.6875 -0.335938 13.34375 -2.453125 C 10 -4.578125 7.359375 -7.59375 5.421875 -11.5 C 3.484375 -15.414062 2.515625 -19.941406 2.515625 -25.078125 Z M 39.953125 -25 C 39.953125 -28.8125 38.890625 -31.820312 36.765625 -34.03125 C 34.648438 -36.25 32.066406 -37.359375 29.015625 -37.359375 C 25.972656 -37.359375 23.390625 -36.265625 21.265625 -34.078125 C 19.148438 -31.898438 18.09375 -28.898438 18.09375 -25.078125 C 18.09375 -21.253906 19.148438 -18.222656 21.265625 -15.984375 C 23.390625 -13.742188 25.972656 -12.625 29.015625 -12.625 C 32.066406 -12.625 34.648438 -13.726562 36.765625 -15.9375 C 38.890625 -18.15625 39.953125 -21.175781 39.953125 -25 Z M 39.953125 -25 "/></g></g><g style="fill:#343434;fill-opacity:1;"><g transform="translate(206.927839, 435.648653)"><path style="stroke:none" d="M 20.875 -41.65625 C 22.664062 -44.40625 24.90625 -46.566406 27.59375 -48.140625 C 30.28125 -49.722656 33.265625 -50.515625 36.546875 -50.515625 L 36.546875 -34.3125 L 32.34375 -34.3125 C 28.519531 -34.3125 25.648438 -33.488281 23.734375 -31.84375 C 21.828125 -30.195312 20.875 -27.316406 20.875 -23.203125 L 20.875 0 L 5.546875 0 L 5.546875 -49.984375 L 20.875 -49.984375 Z M 20.875 -41.65625 "/></g></g><g style="fill:#343434;fill-opacity:1;"><g transform="translate(245.261489, 435.648653)"><path style="stroke:none" d="M 52.671875 -25.796875 C 52.671875 -24.367188 52.582031 -22.875 52.40625 -21.3125 L 17.734375 -21.3125 C 17.972656 -18.207031 18.972656 -15.832031 20.734375 -14.1875 C 22.492188 -12.550781 24.660156 -11.734375 27.234375 -11.734375 C 31.054688 -11.734375 33.710938 -13.347656 35.203125 -16.578125 L 51.5 -16.578125 C 50.664062 -13.285156 49.160156 -10.328125 46.984375 -7.703125 C 44.804688 -5.078125 42.070312 -3.015625 38.78125 -1.515625 C 35.5 -0.0234375 31.828125 0.71875 27.765625 0.71875 C 22.867188 0.71875 18.507812 -0.320312 14.6875 -2.40625 C 10.863281 -4.5 7.878906 -7.488281 5.734375 -11.375 C 3.585938 -15.257812 2.515625 -19.800781 2.515625 -25 C 2.515625 -30.1875 3.570312 -34.722656 5.6875 -38.609375 C 7.8125 -42.492188 10.78125 -45.476562 14.59375 -47.5625 C 18.414062 -49.65625 22.804688 -50.703125 27.765625 -50.703125 C 32.609375 -50.703125 36.910156 -49.6875 40.671875 -47.65625 C 44.429688 -45.625 47.367188 -42.726562 49.484375 -38.96875 C 51.609375 -35.207031 52.671875 -30.816406 52.671875 -25.796875 Z M 37 -29.828125 C 37 -32.453125 36.101562 -34.539062 34.3125 -36.09375 C 32.519531 -37.644531 30.28125 -38.421875 27.59375 -38.421875 C 25.019531 -38.421875 22.851562 -37.675781 21.09375 -36.1875 C 19.332031 -34.695312 18.242188 -32.578125 17.828125 -29.828125 Z M 37 -29.828125 "/></g></g><g style="fill:#343434;fill-opacity:1;"><g transform="translate(300.43329, 435.648653)"><path style="stroke:none" d="M 44.703125 -11.109375 L 21.234375 -11.109375 L 17.46875 0 L 1.4375 0 L 24.1875 -62.890625 L 41.921875 -62.890625 L 64.671875 0 L 48.46875 0 Z M 40.765625 -22.9375 L 32.96875 -45.953125 L 25.265625 -22.9375 Z M 40.765625 -22.9375 "/></g></g><g style="fill:#343434;fill-opacity:1;"><g transform="translate(366.442417, 435.648653)"><path style="stroke:none" d="M 20.875 -62.890625 L 20.875 0 L 5.546875 0 L 5.546875 -62.890625 Z M 20.875 -62.890625 "/></g></g><g style="fill:#343434;fill-opacity:1;"><g transform="translate(392.863981, 435.648653)"><path style="stroke:none" d="M 28.3125 0.625 C 23.707031 0.625 19.582031 -0.117188 15.9375 -1.609375 C 12.300781 -3.109375 9.390625 -5.316406 7.203125 -8.234375 C 5.023438 -11.160156 3.878906 -14.6875 3.765625 -18.8125 L 20.0625 -18.8125 C 20.300781 -16.476562 21.109375 -14.695312 22.484375 -13.46875 C 23.859375 -12.25 25.648438 -11.640625 27.859375 -11.640625 C 30.128906 -11.640625 31.921875 -12.160156 33.234375 -13.203125 C 34.546875 -14.253906 35.203125 -15.707031 35.203125 -17.5625 C 35.203125 -19.113281 34.675781 -20.394531 33.625 -21.40625 C 32.582031 -22.425781 31.300781 -23.265625 29.78125 -23.921875 C 28.257812 -24.578125 26.097656 -25.320312 23.296875 -26.15625 C 19.234375 -27.40625 15.914062 -28.65625 13.34375 -29.90625 C 10.78125 -31.164062 8.570312 -33.019531 6.71875 -35.46875 C 4.863281 -37.914062 3.9375 -41.113281 3.9375 -45.0625 C 3.9375 -50.914062 6.054688 -55.5 10.296875 -58.8125 C 14.535156 -62.125 20.0625 -63.78125 26.875 -63.78125 C 33.800781 -63.78125 39.382812 -62.125 43.625 -58.8125 C 47.863281 -55.5 50.132812 -50.882812 50.4375 -44.96875 L 33.859375 -44.96875 C 33.742188 -47 33 -48.59375 31.625 -49.75 C 30.25 -50.914062 28.488281 -51.5 26.34375 -51.5 C 24.488281 -51.5 22.992188 -51.003906 21.859375 -50.015625 C 20.722656 -49.035156 20.15625 -47.625 20.15625 -45.78125 C 20.15625 -43.75 21.109375 -42.164062 23.015625 -41.03125 C 24.929688 -39.894531 27.921875 -38.671875 31.984375 -37.359375 C 36.046875 -35.984375 39.34375 -34.664062 41.875 -33.40625 C 44.414062 -32.15625 46.609375 -30.332031 48.453125 -27.9375 C 50.304688 -25.550781 51.234375 -22.476562 51.234375 -18.71875 C 51.234375 -15.132812 50.320312 -11.878906 48.5 -8.953125 C 46.6875 -6.023438 44.046875 -3.695312 40.578125 -1.96875 C 37.117188 -0.238281 33.03125 0.625 28.3125 0.625 Z M 28.3125 0.625 "/></g></g><g style="fill:#343434;fill-opacity:1;"><g transform="translate(447.946219, 435.648653)"><path style="stroke:none" d="M 52.671875 -25.796875 C 52.671875 -24.367188 52.582031 -22.875 52.40625 -21.3125 L 17.734375 -21.3125 C 17.972656 -18.207031 18.972656 -15.832031 20.734375 -14.1875 C 22.492188 -12.550781 24.660156 -11.734375 27.234375 -11.734375 C 31.054688 -11.734375 33.710938 -13.347656 35.203125 -16.578125 L 51.5 -16.578125 C 50.664062 -13.285156 49.160156 -10.328125 46.984375 -7.703125 C 44.804688 -5.078125 42.070312 -3.015625 38.78125 -1.515625 C 35.5 -0.0234375 31.828125 0.71875 27.765625 0.71875 C 22.867188 0.71875 18.507812 -0.320312 14.6875 -2.40625 C 10.863281 -4.5 7.878906 -7.488281 5.734375 -11.375 C 3.585938 -15.257812 2.515625 -19.800781 2.515625 -25 C 2.515625 -30.1875 3.570312 -34.722656 5.6875 -38.609375 C 7.8125 -42.492188 10.78125 -45.476562 14.59375 -47.5625 C 18.414062 -49.65625 22.804688 -50.703125 27.765625 -50.703125 C 32.609375 -50.703125 36.910156 -49.6875 40.671875 -47.65625 C 44.429688 -45.625 47.367188 -42.726562 49.484375 -38.96875 C 51.609375 -35.207031 52.671875 -30.816406 52.671875 -25.796875 Z M 37 -29.828125 C 37 -32.453125 36.101562 -34.539062 34.3125 -36.09375 C 32.519531 -37.644531 30.28125 -38.421875 27.59375 -38.421875 C 25.019531 -38.421875 22.851562 -37.675781 21.09375 -36.1875 C 19.332031 -34.695312 18.242188 -32.578125 17.828125 -29.828125 Z M 37 -29.828125 "/></g></g><g style="fill:#343434;fill-opacity:1;"><g transform="translate(503.11802, 435.648653)"><path style="stroke:none" d="M 2.515625 -25.078125 C 2.515625 -30.210938 3.484375 -34.722656 5.421875 -38.609375 C 7.359375 -42.492188 10 -45.476562 13.34375 -47.5625 C 16.6875 -49.65625 20.421875 -50.703125 24.546875 -50.703125 C 28.066406 -50.703125 31.15625 -49.984375 33.8125 -48.546875 C 36.46875 -47.117188 38.515625 -45.238281 39.953125 -42.90625 L 39.953125 -49.984375 L 55.265625 -49.984375 L 55.265625 0 L 39.953125 0 L 39.953125 -7.078125 C 38.460938 -4.742188 36.382812 -2.859375 33.71875 -1.421875 C 31.0625 0.00390625 27.972656 0.71875 24.453125 0.71875 C 20.390625 0.71875 16.6875 -0.335938 13.34375 -2.453125 C 10 -4.578125 7.359375 -7.59375 5.421875 -11.5 C 3.484375 -15.414062 2.515625 -19.941406 2.515625 -25.078125 Z M 39.953125 -25 C 39.953125 -28.8125 38.890625 -31.820312 36.765625 -34.03125 C 34.648438 -36.25 32.066406 -37.359375 29.015625 -37.359375 C 25.972656 -37.359375 23.390625 -36.265625 21.265625 -34.078125 C 19.148438 -31.898438 18.09375 -28.898438 18.09375 -25.078125 C 18.09375 -21.253906 19.148438 -18.222656 21.265625 -15.984375 C 23.390625 -13.742188 25.972656 -12.625 29.015625 -12.625 C 32.066406 -12.625 34.648438 -13.726562 36.765625 -15.9375 C 38.890625 -18.15625 39.953125 -21.175781 39.953125 -25 Z M 39.953125 -25 "/></g></g><g style="fill:#343434;fill-opacity:1;"><g transform="translate(563.932392, 435.648653)"><path style="stroke:none" d="M 20.875 -41.65625 C 22.664062 -44.40625 24.90625 -46.566406 27.59375 -48.140625 C 30.28125 -49.722656 33.265625 -50.515625 36.546875 -50.515625 L 36.546875 -34.3125 L 32.34375 -34.3125 C 28.519531 -34.3125 25.648438 -33.488281 23.734375 -31.84375 C 21.828125 -30.195312 20.875 -27.316406 20.875 -23.203125 L 20.875 0 L 5.546875 0 L 5.546875 -49.984375 L 20.875 -49.984375 Z M 20.875 -41.65625 "/></g></g><g style="fill:#343434;fill-opacity:1;"><g transform="translate(602.266042, 435.648653)"><path style="stroke:none" d="M 2.515625 -25 C 2.515625 -30.1875 3.570312 -34.722656 5.6875 -38.609375 C 7.8125 -42.492188 10.769531 -45.476562 14.5625 -47.5625 C 18.351562 -49.65625 22.695312 -50.703125 27.59375 -50.703125 C 33.863281 -50.703125 39.101562 -49.054688 43.3125 -45.765625 C 47.519531 -42.484375 50.28125 -37.859375 51.59375 -31.890625 L 35.296875 -31.890625 C 33.921875 -35.710938 31.265625 -37.625 27.328125 -37.625 C 24.515625 -37.625 22.269531 -36.53125 20.59375 -34.34375 C 18.925781 -32.164062 18.09375 -29.050781 18.09375 -25 C 18.09375 -20.9375 18.925781 -17.8125 20.59375 -15.625 C 22.269531 -13.445312 24.515625 -12.359375 27.328125 -12.359375 C 31.265625 -12.359375 33.921875 -14.269531 35.296875 -18.09375 L 51.59375 -18.09375 C 50.28125 -12.238281 47.503906 -7.640625 43.265625 -4.296875 C 39.023438 -0.953125 33.800781 0.71875 27.59375 0.71875 C 22.695312 0.71875 18.351562 -0.320312 14.5625 -2.40625 C 10.769531 -4.5 7.8125 -7.488281 5.6875 -11.375 C 3.570312 -15.257812 2.515625 -19.800781 2.515625 -25 Z M 2.515625 -25 "/></g></g><g style="fill:#343434;fill-opacity:1;"><g transform="translate(656.452594, 435.648653)"><path style="stroke:none" d="M 36.28125 -50.515625 C 42.007812 -50.515625 46.601562 -48.617188 50.0625 -44.828125 C 53.53125 -41.035156 55.265625 -35.828125 55.265625 -29.203125 L 55.265625 0 L 40.046875 0 L 40.046875 -27.140625 C 40.046875 -30.484375 39.175781 -33.082031 37.4375 -34.9375 C 35.707031 -36.789062 33.378906 -37.71875 30.453125 -37.71875 C 27.523438 -37.71875 25.195312 -36.789062 23.46875 -34.9375 C 21.738281 -33.082031 20.875 -30.484375 20.875 -27.140625 L 20.875 0 L 5.546875 0 L 5.546875 -66.28125 L 20.875 -66.28125 L 20.875 -43.265625 C 22.425781 -45.472656 24.546875 -47.234375 27.234375 -48.546875 C 29.921875 -49.859375 32.9375 -50.515625 36.28125 -50.515625 Z M 36.28125 -50.515625 "/></g></g><g style="fill:#343434;fill-opacity:1;"><g transform="translate(716.829823, 435.648653)"><path style="stroke:none" d=""/></g></g></g></svg>